<?xml version="1.0" encoding="UTF-8"?>
<svg id="developer-team" xmlns="http://www.w3.org/2000/svg" xmlns:xlink="http://www.w3.org/1999/xlink" viewBox="0 0 798.44 649.25">
  <defs>
    <style>
      .cls-1 {
        fill: url(#linear-gradient-2);
      }

      .cls-2 {
        fill: #fff;
      }

      .cls-3 {
        fill: url(#linear-gradient-17);
      }

      .cls-4 {
        fill: url(#linear-gradient-43);
      }

      .cls-5 {
        fill: #b5a8ae;
      }

      .cls-6 {
        fill: #efeeef;
      }

      .cls-7 {
        fill: #0b4870;
        opacity: .43;
        stroke-width: .5px;
      }

      .cls-7, .cls-8 {
        stroke: #fff;
        stroke-miterlimit: 10;
      }

      .cls-9 {
        fill: url(#linear-gradient-15);
      }

      .cls-10 {
        fill: url(#linear-gradient-18);
      }

      .cls-11 {
        fill: #e3dde4;
      }

      .cls-12 {
        fill: url(#linear-gradient-40);
      }

      .cls-13 {
        fill: url(#linear-gradient-28);
      }

      .cls-14 {
        fill: #b07d7c;
      }

      .cls-15 {
        fill: url(#linear-gradient-14);
      }

      .cls-16 {
        fill: url(#linear-gradient-36);
      }

      .cls-17 {
        fill: url(#linear-gradient-20);
      }

      .cls-18 {
        fill: url(#linear-gradient-6);
      }

      .cls-19 {
        fill: #f2d265;
      }

      .cls-20 {
        fill: url(#linear-gradient-35);
      }

      .cls-21 {
        fill: #e2dce3;
      }

      .cls-22 {
        fill: url(#linear-gradient-32);
      }

      .cls-23 {
        fill: #2421a2;
      }

      .cls-24 {
        fill: url(#linear-gradient-11);
      }

      .cls-25 {
        fill: url(#linear-gradient-39);
      }

      .cls-26 {
        fill: url(#linear-gradient-10);
      }

      .cls-27 {
        fill: url(#radial-gradient);
      }

      .cls-28 {
        fill: #be4118;
      }

      .cls-29 {
        fill: #6a74ef;
      }

      .cls-30 {
        fill: url(#linear-gradient-37);
      }

      .cls-31 {
        fill: #5c60d5;
      }

      .cls-32 {
        fill: url(#linear-gradient-16);
      }

      .cls-33 {
        fill: url(#linear-gradient-31);
      }

      .cls-34 {
        fill: url(#linear-gradient-41);
      }

      .cls-35 {
        fill: #250f52;
      }

      .cls-36 {
        fill: #ea971d;
      }

      .cls-37 {
        fill: url(#linear-gradient-21);
      }

      .cls-38 {
        fill: url(#linear-gradient-25);
      }

      .cls-39 {
        fill: url(#linear-gradient-5);
      }

      .cls-40 {
        fill: url(#linear-gradient-45);
      }

      .cls-41 {
        fill: url(#linear-gradient-34);
      }

      .cls-42 {
        fill: url(#linear-gradient-7);
      }

      .cls-43 {
        fill: url(#linear-gradient-24);
      }

      .cls-44 {
        fill: url(#linear-gradient-9);
      }

      .cls-45 {
        fill: url(#linear-gradient-22);
      }

      .cls-8 {
        fill: none;
        stroke-width: 14.17px;
      }

      .cls-46 {
        fill: url(#linear-gradient-42);
      }

      .cls-47 {
        fill: url(#linear-gradient-3);
      }

      .cls-48 {
        fill: url(#linear-gradient);
      }

      .cls-49 {
        fill: url(#linear-gradient-27);
      }

      .cls-50 {
        fill: url(#linear-gradient-33);
      }

      .cls-51 {
        fill: url(#linear-gradient-38);
      }

      .cls-52 {
        fill: url(#linear-gradient-29);
      }

      .cls-53 {
        fill: url(#linear-gradient-30);
      }

      .cls-54 {
        fill: url(#linear-gradient-23);
      }

      .cls-55 {
        fill: url(#linear-gradient-19);
      }

      .cls-56 {
        fill: url(#linear-gradient-4);
      }

      .cls-57 {
        fill: url(#linear-gradient-8);
      }

      .cls-58 {
        fill: url(#linear-gradient-44);
      }

      .cls-59 {
        fill: url(#linear-gradient-47);
      }

      .cls-60 {
        fill: url(#linear-gradient-46);
      }

      .cls-61 {
        fill: url(#linear-gradient-12);
      }

      .cls-62 {
        fill: url(#linear-gradient-13);
      }

      .cls-63 {
        fill: url(#linear-gradient-26);
      }
    </style>
    <linearGradient id="linear-gradient" x1="352.67" y1="103.77" x2="463.58" y2="-7.14" gradientTransform="translate(0 603.34) scale(1 -1)" gradientUnits="userSpaceOnUse">
      <stop offset="0" stop-color="#efeeef"/>
      <stop offset="1" stop-color="#fff"/>
    </linearGradient>
    <linearGradient id="linear-gradient-2" x1="521.66" y1="486.34" x2="659.78" y2="486.34" xlink:href="#linear-gradient"/>
    <linearGradient id="linear-gradient-3" x1="261.6" y1="507.36" x2="418.86" y2="350.1" gradientTransform="translate(0 603.34) scale(1 -1)" gradientUnits="userSpaceOnUse">
      <stop offset="0" stop-color="#fff"/>
      <stop offset="1" stop-color="#efeeef"/>
    </linearGradient>
    <linearGradient id="linear-gradient-4" x1="592.58" y1="233.93" x2="634.51" y2="233.93" gradientTransform="translate(0 603.34) scale(1 -1)" gradientUnits="userSpaceOnUse">
      <stop offset="0" stop-color="#eaaea4"/>
      <stop offset=".31" stop-color="#e8a89d"/>
      <stop offset=".78" stop-color="#e39688"/>
      <stop offset="1" stop-color="#e08c7c"/>
    </linearGradient>
    <linearGradient id="linear-gradient-5" x1="622.95" y1="223.75" x2="645.91" y2="223.75" gradientTransform="translate(0 603.34) scale(1 -1)" gradientUnits="userSpaceOnUse">
      <stop offset="0" stop-color="#895e68"/>
      <stop offset="1" stop-color="#5b252c"/>
    </linearGradient>
    <radialGradient id="radial-gradient" cx="554.38" cy="306.63" fx="554.38" fy="306.63" r="61.23" gradientTransform="translate(0 603.34) scale(1 -1)" gradientUnits="userSpaceOnUse">
      <stop offset="0" stop-color="#5c60d5"/>
      <stop offset="1" stop-color="#2421a2"/>
    </radialGradient>
    <linearGradient id="linear-gradient-6" x1="596.93" y1="156.21" x2="627.77" y2="156.21" xlink:href="#linear-gradient-4"/>
    <linearGradient id="linear-gradient-7" x1="613.24" y1="128.22" x2="637.85" y2="128.22" xlink:href="#linear-gradient-5"/>
    <linearGradient id="linear-gradient-8" x1="519.28" y1="348.45" x2="649.89" y2="217.83" gradientTransform="translate(0 603.34) scale(1 -1)" gradientUnits="userSpaceOnUse">
      <stop offset="0" stop-color="#6a74ef"/>
      <stop offset=".2" stop-color="#616ae5"/>
      <stop offset=".55" stop-color="#4a4ecc"/>
      <stop offset=".99" stop-color="#2522a3"/>
      <stop offset="1" stop-color="#2421a2"/>
    </linearGradient>
    <linearGradient id="linear-gradient-9" x1="512.08" y1="419.18" x2="599.11" y2="419.18" gradientTransform="translate(0 603.34) scale(1 -1)" gradientUnits="userSpaceOnUse">
      <stop offset="0" stop-color="#f2d265"/>
      <stop offset="1" stop-color="#dcbb60"/>
    </linearGradient>
    <linearGradient id="linear-gradient-10" x1="519.7" y1="418.73" x2="592.11" y2="418.73" gradientTransform="translate(0 603.34) scale(1 -1)" gradientUnits="userSpaceOnUse">
      <stop offset="0" stop-color="#6a74ef"/>
      <stop offset="1" stop-color="#2421a2"/>
    </linearGradient>
    <linearGradient id="linear-gradient-11" x1="519.61" y1="508.38" x2="528.56" y2="508.38" xlink:href="#linear-gradient-4"/>
    <linearGradient id="linear-gradient-12" x1="539.87" y1="489.17" x2="575.73" y2="489.17" xlink:href="#linear-gradient-4"/>
    <linearGradient id="linear-gradient-13" x1="520.57" y1="512.56" x2="568.17" y2="512.56" gradientTransform="translate(0 603.34) scale(1 -1)" gradientUnits="userSpaceOnUse">
      <stop offset="0" stop-color="#fcc3bb"/>
      <stop offset=".46" stop-color="#f6bcb4"/>
      <stop offset="1" stop-color="#eaaea4"/>
    </linearGradient>
    <linearGradient id="linear-gradient-14" x1="535.49" y1="508.06" x2="540.86" y2="509.01" gradientTransform="translate(0 603.34) scale(1 -1)" gradientUnits="userSpaceOnUse">
      <stop offset="0" stop-color="#e25ab8"/>
      <stop offset="1" stop-color="#f6bcb4"/>
    </linearGradient>
    <linearGradient id="linear-gradient-15" x1="543.39" y1="503.37" x2="543.39" y2="571.25" gradientTransform="translate(0 603.34) scale(1 -1)" gradientUnits="userSpaceOnUse">
      <stop offset="0" stop-color="#ae2e41"/>
      <stop offset="1" stop-color="#dc6734"/>
    </linearGradient>
    <linearGradient id="linear-gradient-16" x1="325.21" y1="357.91" x2="556.32" y2="357.91" gradientTransform="translate(0 603.34) scale(1 -1)" gradientUnits="userSpaceOnUse">
      <stop offset="0" stop-color="#b5a8ae"/>
      <stop offset="1" stop-color="#e3dde4"/>
    </linearGradient>
    <linearGradient id="linear-gradient-17" x1="326.8" y1="405.92" x2="424.92" y2="307.8" xlink:href="#linear-gradient-9"/>
    <linearGradient id="linear-gradient-18" x1="479.27" y1="350.07" x2="579.07" y2="250.27" xlink:href="#linear-gradient-9"/>
    <linearGradient id="linear-gradient-19" x1="491.33" y1="345.08" x2="541.69" y2="294.72" gradientTransform="translate(0 603.34) scale(1 -1)" gradientUnits="userSpaceOnUse">
      <stop offset="0" stop-color="#ea971d"/>
      <stop offset="1" stop-color="#e9aa4a"/>
    </linearGradient>
    <linearGradient id="linear-gradient-20" x1="539.14" y1="303.28" x2="585.61" y2="256.81" xlink:href="#linear-gradient-15"/>
    <linearGradient id="linear-gradient-21" x1="530.92" y1="322.7" x2="561.46" y2="292.15" gradientTransform="translate(0 603.34) scale(1 -1)" gradientUnits="userSpaceOnUse">
      <stop offset="0" stop-color="#dc6734"/>
      <stop offset="1" stop-color="#ea971d"/>
    </linearGradient>
    <linearGradient id="linear-gradient-22" x1="551.05" y1="364.43" x2="567.07" y2="348.41" xlink:href="#linear-gradient-21"/>
    <linearGradient id="linear-gradient-23" x1="494.05" y1="306.55" x2="509.82" y2="290.78" xlink:href="#linear-gradient-21"/>
    <linearGradient id="linear-gradient-24" x1="375.84" y1="132.34" x2="375.84" y2="281.27" xlink:href="#linear-gradient-16"/>
    <linearGradient id="linear-gradient-25" x1="574.88" y1="381.78" x2="638.72" y2="381.78" xlink:href="#linear-gradient-4"/>
    <linearGradient id="linear-gradient-26" x1="580.91" y1="445.09" x2="615.29" y2="445.09" xlink:href="#linear-gradient-9"/>
    <linearGradient id="linear-gradient-27" x1="590.82" y1="464.85" x2="591.26" y2="464.85" xlink:href="#linear-gradient-9"/>
    <linearGradient id="linear-gradient-28" x1="472.76" y1="464.06" x2="506.32" y2="464.06" xlink:href="#linear-gradient-4"/>
    <linearGradient id="linear-gradient-29" x1="201.92" y1="346.97" x2="238.16" y2="310.73" xlink:href="#linear-gradient-4"/>
    <linearGradient id="linear-gradient-30" x1="239.88" y1="374.21" x2="282.17" y2="374.21" gradientTransform="translate(0 603.34) scale(1 -1)" gradientUnits="userSpaceOnUse">
      <stop offset="0" stop-color="#2421a2"/>
      <stop offset="1" stop-color="#250f50"/>
    </linearGradient>
    <linearGradient id="linear-gradient-31" x1="161.4" y1="205.5" x2="293.41" y2="205.5" gradientTransform="translate(0 603.34) scale(1 -1)" gradientUnits="userSpaceOnUse">
      <stop offset="0" stop-color="#5c60d5"/>
      <stop offset=".59" stop-color="#2421a2"/>
      <stop offset="1" stop-color="#250f52"/>
    </linearGradient>
    <linearGradient id="linear-gradient-32" x1="145.92" y1="100.74" x2="177.24" y2="100.74" xlink:href="#linear-gradient-4"/>
    <linearGradient id="linear-gradient-33" x1="133.99" y1="68.54" x2="167.28" y2="68.54" gradientTransform="translate(0 603.34) scale(1 -1)" gradientUnits="userSpaceOnUse">
      <stop offset="0" stop-color="#dc6734"/>
      <stop offset="1" stop-color="#ae2e41"/>
    </linearGradient>
    <linearGradient id="linear-gradient-34" x1="133.99" y1="64.52" x2="165.98" y2="64.52" gradientTransform="translate(0 603.34) scale(1 -1)" gradientUnits="userSpaceOnUse">
      <stop offset="0" stop-color="#e9aa4a"/>
      <stop offset="1" stop-color="#ea971d"/>
    </linearGradient>
    <linearGradient id="linear-gradient-35" x1="155.02" y1="110.48" x2="177.24" y2="110.48" gradientTransform="translate(0 603.34) scale(1 -1)" gradientUnits="userSpaceOnUse">
      <stop offset="0" stop-color="#5c60d5"/>
      <stop offset="1" stop-color="#2421a2"/>
    </linearGradient>
    <linearGradient id="linear-gradient-36" x1="279.1" y1="169.75" x2="279.1" y2="306.41" gradientTransform="translate(0 603.34) scale(1 -1)" gradientUnits="userSpaceOnUse">
      <stop offset="0" stop-color="#5c60d5"/>
      <stop offset=".62" stop-color="#2421a2"/>
      <stop offset="1" stop-color="#250f52"/>
    </linearGradient>
    <linearGradient id="linear-gradient-37" x1="219.08" y1="179.21" x2="245.18" y2="179.21" xlink:href="#linear-gradient-4"/>
    <linearGradient id="linear-gradient-38" x1="198.81" y1="155.91" x2="221.81" y2="155.91" xlink:href="#linear-gradient-15"/>
    <linearGradient id="linear-gradient-39" x1="198.81" y1="154.26" x2="209.61" y2="154.26" xlink:href="#linear-gradient-34"/>
    <linearGradient id="linear-gradient-40" x1="225.95" y1="182.95" x2="245.18" y2="182.95" xlink:href="#linear-gradient-35"/>
    <linearGradient id="linear-gradient-41" x1="331.6" y1="440.54" x2="338.91" y2="440.54" gradientTransform="translate(0 603.34) scale(1 -1)" gradientUnits="userSpaceOnUse">
      <stop offset="0" stop-color="#e08c7c"/>
      <stop offset="1" stop-color="#e25ab8"/>
    </linearGradient>
    <linearGradient id="linear-gradient-42" x1="299.26" y1="433.93" x2="335.23" y2="433.93" xlink:href="#linear-gradient-4"/>
    <linearGradient id="linear-gradient-43" x1="294.79" y1="413.07" x2="320.33" y2="391.64" xlink:href="#linear-gradient-4"/>
    <linearGradient id="linear-gradient-44" x1="284.8" y1="452.69" x2="338.07" y2="452.69" gradientTransform="translate(0 603.34) scale(1 -1)" gradientUnits="userSpaceOnUse">
      <stop offset="0" stop-color="#5b252c"/>
      <stop offset=".19" stop-color="#60262b"/>
      <stop offset=".39" stop-color="#6d2a28"/>
      <stop offset=".61" stop-color="#833024"/>
      <stop offset=".83" stop-color="#a2391e"/>
      <stop offset="1" stop-color="#be4118"/>
    </linearGradient>
    <linearGradient id="linear-gradient-45" x1="410.4" y1="427.12" x2="455.34" y2="382.18" xlink:href="#linear-gradient-4"/>
    <linearGradient id="linear-gradient-46" x1="234.55" y1="346.08" x2="384.22" y2="346.08" xlink:href="#linear-gradient-30"/>
    <linearGradient id="linear-gradient-47" x1="234.55" y1="325.73" x2="342.83" y2="325.73" xlink:href="#linear-gradient-33"/>
  </defs>
  <rect class="cls-7" x="52.92" y="133.01" width="737.88" height="504.92" rx="30.41" ry="30.41"/>
  <rect class="cls-8" x="12.68" y="96.41" width="778.13" height="544.52" rx="29.57" ry="29.57"/>
  <g>
    <circle class="cls-48" cx="408.12" cy="555.02" r="78.42"/>
    <path class="cls-21" d="m408.12,634.03c-1.01,0-2.04-.02-3.04-.06l.04-1.17c2.06.08,4.18.07,6.27-.01l.05,1.17c-1.1.05-2.22.07-3.32.07h0Zm-9.38-.55c-2.1-.25-4.21-.59-6.28-1l.23-1.15c2.04.41,4.12.74,6.19.99l-.14,1.16h0Zm19.04-.03l-.14-1.16c2.07-.25,4.14-.59,6.18-1.01l.23,1.15c-2.08.43-4.17.77-6.28,1.02h0Zm-31.5-2.47c-2.04-.59-4.05-1.25-6.04-2l.41-1.1c1.96.74,3.94,1.39,5.95,1.97l-.32,1.12h0Zm43.95-.08l-.33-1.12c2.01-.58,3.99-1.25,5.94-1.99l.42,1.09c-1.97.75-4,1.43-6.03,2.02h0Zm-55.85-4.41c-1.92-.91-3.8-1.89-5.64-2.95l.58-1.02c1.81,1.04,3.67,2.01,5.56,2.91l-.5,1.06h0Zm67.73-.12l-.5-1.06c1.89-.9,3.73-1.87,5.54-2.92l.59,1.01c-1.83,1.06-3.71,2.05-5.62,2.97Zm-78.75-6.23c-1.75-1.2-3.45-2.48-5.09-3.82l.74-.91c1.62,1.32,3.29,2.57,5.02,3.76l-.66.97Zm89.74-.15l-.67-.96c1.72-1.19,3.39-2.45,5-3.78l.74.91c-1.64,1.34-3.33,2.62-5.08,3.83h0Zm-99.6-7.88c-1.53-1.47-3.01-2.99-4.42-4.58l.87-.78c1.39,1.56,2.84,3.07,4.35,4.51l-.81.85Zm109.43-.18l-.81-.84c1.51-1.45,2.95-2.96,4.34-4.53l.88.78c-1.41,1.59-2.87,3.12-4.4,4.59h0Zm-117.88-9.32c-1.28-1.69-2.49-3.44-3.63-5.22l.99-.63c1.12,1.76,2.32,3.49,3.57,5.15l-.93.71h0Zm126.3-.21l-.94-.7c1.26-1.67,2.44-3.39,3.56-5.16l.99.63c-1.13,1.79-2.34,3.54-3.61,5.24Zm-133.12-10.51c-.99-1.87-1.91-3.79-2.74-5.74l1.08-.46c.82,1.92,1.72,3.8,2.7,5.65l-1.03.55h0Zm139.92-.24l-1.04-.54c.97-1.85,1.87-3.74,2.68-5.67l1.08.46c-.83,1.95-1.74,3.87-2.73,5.75h0Zm-144.93-11.44c-.67-2-1.27-4.06-1.78-6.11l1.14-.28c.5,2.03,1.09,4.03,1.75,6.02l-1.11.37h0Zm149.9-.27l-1.11-.37c.66-1.98,1.24-3.99,1.73-6.02l1.14.28c-.5,2.05-1.09,4.11-1.76,6.11h0Zm-152.96-12.06c-.34-2.08-.6-4.21-.77-6.31l1.17-.1c.17,2.08.43,4.17.76,6.22l-1.15.19h0Zm155.98-.28l-1.15-.18c.33-2.06.58-4.15.74-6.22l1.17.09c-.17,2.11-.42,4.22-.75,6.32Zm-155.85-12.39h-1.17v-.19c0-2.12.08-4.26.25-6.36l1.17.09c-.17,2.08-.25,4.17-.25,6.26v.19h0Zm155.67-.28c0-2.09-.09-4.18-.26-6.26l1.17-.09c.17,2.1.26,4.24.26,6.36h-1.17Zm-154.68-12.39l-1.15-.19c.34-2.09.76-4.18,1.26-6.23l1.14.28c-.5,2.03-.91,4.08-1.25,6.14h0Zm153.67-.09c-.34-2.06-.75-4.11-1.25-6.14l1.14-.28c.51,2.06.93,4.14,1.27,6.23l-1.16.19h0Zm-150.68-12.07l-1.11-.37c.67-2.01,1.43-4,2.26-5.95l1.08.46c-.82,1.92-1.56,3.88-2.22,5.86h0Zm147.68-.09c-.66-1.98-1.41-3.93-2.23-5.85l1.08-.46c.83,1.95,1.59,3.93,2.26,5.94l-1.11.37h0Zm-142.77-11.44l-1.04-.54c.99-1.88,2.05-3.72,3.19-5.51l.99.63c-1.12,1.77-2.17,3.58-3.14,5.43h0Zm137.84-.07c-.98-1.85-2.02-3.65-3.14-5.42l.99-.63c1.14,1.79,2.2,3.63,3.19,5.5l-1.04.55h0Zm-131.14-10.52l-.93-.7c1.28-1.7,2.62-3.34,4.03-4.93l.88.78c-1.39,1.56-2.71,3.18-3.97,4.85h0Zm124.43-.05c-1.26-1.67-2.58-3.29-3.97-4.85l.87-.78c1.41,1.59,2.75,3.23,4.03,4.92l-.93.7Zm-116.12-9.32l-.81-.84c1.53-1.47,3.12-2.88,4.76-4.22l.74.91c-1.62,1.32-3.18,2.71-4.69,4.16Zm107.81-.04c-1.51-1.45-3.07-2.83-4.69-4.15l.74-.91c1.64,1.34,3.23,2.75,4.76,4.22l-.81.84h0Zm-98.11-7.88l-.67-.96c1.74-1.21,3.54-2.34,5.37-3.4l.59,1.01c-1.81,1.05-3.57,2.16-5.29,3.35Zm88.4-.04c-1.72-1.19-3.49-2.31-5.3-3.35l.59-1.01c1.84,1.06,3.63,2.2,5.38,3.4l-.67.96h0Zm-77.57-6.23l-.5-1.06c1.91-.91,3.86-1.74,5.85-2.5l.42,1.09c-1.95.74-3.87,1.56-5.76,2.46Zm66.72-.03c-1.89-.9-3.81-1.72-5.77-2.46l.41-1.09c1.99.75,3.94,1.58,5.86,2.49l-.5,1.06Zm-55.02-4.41l-.33-1.12c2.04-.59,4.1-1.1,6.18-1.52l.23,1.15c-2.05.42-4.08.92-6.08,1.5h0Zm43.3-.03c-2.01-.58-4.04-1.08-6.09-1.49l.23-1.15c2.07.42,4.15.93,6.18,1.51l-.32,1.13h0Zm-31.03-2.47l-.14-1.16c2.09-.25,4.22-.42,6.34-.51l.05,1.17c-2.08.08-4.19.25-6.25.5Zm18.76,0c-2.08-.25-4.16-.41-6.25-.49l.05-1.17c2.11.08,4.25.25,6.34.5l-.14,1.16h0Z"/>
    <circle class="cls-1" cx="590.72" cy="117" r="69.06"/>
    <path class="cls-21" d="m590.72,186.64c-1,0-2.01-.02-3-.06l.05-1.17c2.02.09,4.1.08,6.14-.01l.05,1.17c-1.08.05-2.16.07-3.24.07Zm-9.22-.6c-2.07-.27-4.12-.64-6.15-1.1l.26-1.14c2,.45,4.02.81,6.05,1.08l-.15,1.16h0Zm18.69-.03l-.16-1.16c2.03-.28,4.05-.64,6.04-1.1l.26,1.14c-2.03.46-4.08.84-6.15,1.12Zm-30.87-2.71c-1.98-.64-3.94-1.37-5.86-2.19l.46-1.08c1.89.8,3.81,1.52,5.76,2.15l-.36,1.11Zm43.03-.07l-.36-1.11c1.95-.64,3.86-1.36,5.74-2.17l.46,1.08c-1.91.82-3.86,1.56-5.84,2.2Zm-54.52-4.82c-1.84-.99-3.63-2.05-5.37-3.2l.64-.98c1.71,1.13,3.47,2.18,5.28,3.15l-.55,1.03Zm65.99-.11l-.56-1.03c1.8-.98,3.56-2.03,5.27-3.16l.65.98c-1.74,1.15-3.52,2.22-5.35,3.22Zm-76.42-6.75c-1.63-1.3-3.2-2.67-4.71-4.1l.81-.85c1.48,1.41,3.03,2.76,4.63,4.04l-.73.92h0Zm86.82-.15l-.73-.91c1.6-1.28,3.14-2.63,4.62-4.05l.81.85c-1.5,1.44-3.07,2.82-4.7,4.12h0Zm-95.86-8.47c-1.37-1.57-2.68-3.19-3.91-4.87l.95-.69c1.21,1.65,2.49,3.25,3.84,4.79l-.88.77Zm104.87-.17l-.88-.77c1.35-1.54,2.62-3.15,3.83-4.81l.95.69c-1.22,1.69-2.52,3.32-3.89,4.89h0Zm-112.23-9.9c-1.07-1.79-2.07-3.62-2.98-5.49l1.05-.51c.89,1.84,1.87,3.64,2.93,5.4l-1,.6Zm119.56-.2l-1-.6c1.05-1.76,2.02-3.57,2.91-5.41l1.06.51c-.9,1.88-1.89,3.72-2.96,5.51h0Zm-125.01-11.03c-.74-1.95-1.38-3.93-1.94-5.94l1.13-.31c.55,1.97,1.19,3.92,1.91,5.84l-1.09.41Zm130.42-.23l-1.1-.41c.72-1.92,1.35-3.87,1.89-5.84l1.13.31c-.55,2.01-1.19,3.99-1.92,5.94Zm-133.76-11.8c-.37-2.05-.65-4.12-.84-6.19l1.17-.11c.19,2.04.46,4.07.83,6.09l-1.15.21h0Zm137.06-.24l-1.15-.21c.36-2.02.63-4.05.81-6.09l1.17.1c-.18,2.08-.46,4.14-.82,6.19h0Zm-137.02-12.19h-1.17v-.16c0-2.08.09-4.18.28-6.24l1.17.1c-.18,2.04-.27,4.09-.27,6.14v.16Zm136.94-.24c0-2.05-.1-4.1-.28-6.14l1.17-.11c.18,2.06.28,4.16.28,6.24h-1.17Zm-135.86-12.14l-1.15-.21c.37-2.05.83-4.08,1.38-6.09l1.13.31c-.54,1.98-1,3.97-1.36,5.99h0Zm134.75-.08c-.37-2.02-.82-4.01-1.37-5.99l1.13-.31c.56,2.01,1.02,4.04,1.39,6.09l-1.15.21h0Zm-131.5-11.75l-1.1-.41c.73-1.95,1.55-3.87,2.46-5.75l1.06.51c-.89,1.85-1.7,3.73-2.42,5.65Zm128.23-.07c-.72-1.92-1.53-3.8-2.42-5.64l1.05-.51c.91,1.88,1.73,3.79,2.46,5.74l-1.1.41h0Zm-122.9-10.98l-1-.6c1.07-1.79,2.22-3.53,3.45-5.21l.95.69c-1.21,1.66-2.34,3.37-3.39,5.13h0Zm117.56-.06c-1.05-1.76-2.19-3.46-3.39-5.12l.95-.69c1.23,1.68,2.38,3.42,3.45,5.21l-1,.6Zm-110.33-9.87l-.88-.77c1.36-1.56,2.82-3.08,4.32-4.52l.81.85c-1.48,1.42-2.9,2.9-4.25,4.44h0Zm103.1-.05c-1.35-1.54-2.77-3.02-4.25-4.44l.81-.85c1.51,1.44,2.95,2.94,4.32,4.51l-.88.77h0Zm-94.23-8.43l-.73-.91c1.63-1.3,3.31-2.53,5.05-3.68l.65.98c-1.71,1.13-3.37,2.34-4.97,3.62Zm85.36-.04c-1.6-1.28-3.26-2.48-4.97-3.61l.64-.98c1.74,1.15,3.43,2.37,5.06,3.67l-.73.92Zm-75.12-6.73l-.56-1.03c1.83-.99,3.71-1.89,5.62-2.72l.46,1.08c-1.88.81-3.73,1.7-5.53,2.67Zm64.88-.04c-1.8-.97-3.65-1.86-5.54-2.67l.46-1.08c1.92.82,3.8,1.72,5.63,2.71l-.55,1.03h0Zm-53.6-4.8l-.36-1.11c1.98-.64,3.99-1.2,6.02-1.66l.26,1.14c-2,.46-3.97,1-5.92,1.63h0Zm42.31-.02c-1.95-.63-3.93-1.17-5.92-1.63l.26-1.14c2.03.46,4.04,1.01,6.03,1.65l-.36,1.11h0Zm-30.35-2.7l-.16-1.16c2.06-.28,4.14-.46,6.22-.56l.05,1.17c-2.05.09-4.09.27-6.12.55Zm18.38-.01c-2.03-.27-4.07-.45-6.12-.54l.05-1.17c2.08.09,4.17.28,6.22.55l-.16,1.16h0Z"/>
    <circle class="cls-47" cx="340.23" cy="174.61" r="111.2"/>
    <path class="cls-21" d="m340.24,286.39c-2.02,0-4.05-.05-6.05-.16l.06-1.17c1.98.11,3.99.16,5.98.16h.22v1.17h-.21,0Zm6.48-.18l-.07-1.17c2.06-.12,4.14-.29,6.18-.53l.13,1.16c-2.06.23-4.16.41-6.24.53Zm-18.78-.48c-2.07-.23-4.16-.52-6.21-.86l.19-1.15c2.03.34,4.09.62,6.14.85l-.13,1.16Zm31.23-.93l-.2-1.15c2.03-.35,4.08-.76,6.08-1.22l.26,1.14c-2.04.47-4.09.88-6.15,1.23h0Zm-43.59-1.13c-2.04-.46-4.06-.98-6.07-1.55l.32-1.13c1.99.57,3.99,1.08,6.01,1.53l-.26,1.14h0Zm55.81-1.67l-.33-1.12c1.98-.57,3.97-1.21,5.91-1.89l.39,1.1c-1.97.69-3.96,1.33-5.97,1.91Zm-67.86-1.77c-1.98-.69-3.94-1.43-5.87-2.23l.45-1.08c1.92.79,3.85,1.52,5.81,2.21l-.38,1.11h0Zm79.67-2.39l-.45-1.08c1.89-.79,3.79-1.64,5.65-2.54l.51,1.05c-1.88.91-3.78,1.77-5.71,2.57h0Zm-91.27-2.4c-1.89-.91-3.75-1.86-5.58-2.87l.57-1.02c1.81,1,3.65,1.95,5.52,2.84l-.51,1.06h0Zm102.53-3.06l-.57-1.02c1.81-1,3.58-2.06,5.33-3.16l.63.99c-1.77,1.11-3.56,2.18-5.39,3.19h0Zm-113.52-3c-1.77-1.11-3.51-2.27-5.22-3.48l.68-.96c1.69,1.2,3.41,2.34,5.17,3.44l-.62.99h0Zm124.11-3.69l-.68-.95c1.68-1.2,3.33-2.45,4.95-3.74l.73.91c-1.63,1.31-3.3,2.57-5,3.78Zm-134.34-3.56c-1.64-1.3-3.24-2.65-4.8-4.04l.78-.87c1.55,1.38,3.13,2.71,4.75,4l-.73.92Zm144.12-4.27l-.78-.87c1.54-1.38,3.04-2.8,4.5-4.27l.83.83c-1.48,1.48-2.99,2.92-4.55,4.31Zm-153.48-4.07c-1.48-1.48-2.92-2.99-4.32-4.55l.87-.78c1.38,1.54,2.81,3.04,4.27,4.5l-.83.83Zm162.34-4.8l-.87-.78c1.38-1.54,2.71-3.13,4-4.74l.92.73c-1.3,1.63-2.65,3.23-4.04,4.79h0Zm-170.71-4.52c-1.31-1.63-2.57-3.3-3.78-5l.95-.68c1.2,1.68,2.45,3.33,3.74,4.94l-.91.73h0Zm178.52-5.28l-.96-.68c1.2-1.69,2.35-3.41,3.45-5.16l.99.62c-1.11,1.77-2.27,3.51-3.48,5.22h0Zm-185.79-4.91c-1.12-1.76-2.18-3.56-3.2-5.38l1.02-.57c1.01,1.8,2.06,3.58,3.16,5.33l-.99.63h0Zm192.46-5.71l-1.02-.57c1-1.81,1.95-3.65,2.85-5.52l1.06.51c-.91,1.89-1.87,3.75-2.88,5.58h0Zm-198.55-5.22c-.91-1.88-1.77-3.78-2.57-5.7l1.08-.45c.8,1.91,1.64,3.79,2.55,5.65l-1.05.51h0Zm203.99-6.09l-1.08-.45c.79-1.91,1.53-3.85,2.21-5.81l1.1.38c-.69,1.98-1.43,3.94-2.23,5.87h0Zm-208.81-5.46c-.69-1.97-1.33-3.96-1.92-5.97l1.12-.33c.58,1.99,1.21,3.95,1.9,5.91l-1.1.39h0Zm212.93-6.39l-1.12-.32c.56-1.97,1.08-4,1.54-6.01l1.14.26c-.46,2.04-.98,4.06-1.55,6.07h0Zm-216.43-5.65c-.47-2.04-.88-4.09-1.23-6.15l1.15-.2c.35,2.03.76,4.07,1.22,6.08l-1.14.26Zm219.19-6.58l-1.15-.19c.34-2.03.63-4.1.85-6.14l1.16.13c-.23,2.08-.51,4.15-.86,6.21h0Zm-221.3-5.77c-.24-2.07-.42-4.17-.54-6.24l1.17-.07c.12,2.06.3,4.14.53,6.18l-1.16.13h0Zm222.68-6.68l-1.17-.06c.11-2,.16-4.04.16-6.06v-.14h1.17v.14c0,2.04-.06,4.1-.16,6.12h0Zm-223.4-5.83v-.29c0-2.08.06-4.19.17-6.26l1.17.06c-.11,2.06-.17,4.13-.17,6.2v.29h-1.17Zm222.22-6.63c-.12-2.06-.29-4.13-.52-6.18l1.16-.13c.23,2.06.41,4.16.53,6.25l-1.17.07h0Zm-220.36-6.04l-1.16-.13c.23-2.07.52-4.16.87-6.21l1.15.19c-.34,2.03-.63,4.1-.86,6.14h0Zm218.97-6.29c-.35-2.04-.75-4.07-1.21-6.08l1.14-.26c.46,2.04.87,4.09,1.22,6.15l-1.15.2Zm-216.91-5.94l-1.14-.26c.46-2.03.99-4.07,1.56-6.07l1.12.32c-.57,1.99-1.08,3.99-1.54,6.01Zm214.15-6.15c-.57-1.99-1.2-3.96-1.89-5.91l1.1-.39c.69,1.96,1.33,3.97,1.91,5.97l-1.12.33h0Zm-210.72-5.77l-1.11-.39c.69-1.97,1.44-3.94,2.24-5.87l1.08.45c-.79,1.91-1.53,3.85-2.22,5.81h0Zm206.62-5.92c-.79-1.91-1.64-3.79-2.54-5.65l1.05-.51c.91,1.88,1.76,3.78,2.57,5.71l-1.08.45h0Zm-201.86-5.56l-1.05-.51c.9-1.87,1.87-3.75,2.89-5.57l1.02.57c-1,1.81-1.96,3.65-2.86,5.51h0Zm196.47-5.59c-1-1.81-2.06-3.58-3.16-5.33l.99-.62c1.11,1.77,2.18,3.56,3.19,5.39l-1.02.57Zm-190.45-5.27l-.99-.62c1.12-1.77,2.28-3.51,3.49-5.21l.95.68c-1.2,1.69-2.35,3.41-3.45,5.16h0Zm183.84-5.21c-1.2-1.68-2.44-3.33-3.73-4.95l.91-.73c1.3,1.63,2.56,3.3,3.77,5l-.95.68h0Zm-176.65-4.91l-.91-.73c1.31-1.63,2.66-3.23,4.05-4.79l.87.78c-1.38,1.54-2.71,3.12-4.01,4.74h0Zm168.91-4.78c-1.38-1.54-2.8-3.04-4.27-4.5l.83-.83c1.48,1.48,2.92,2.99,4.31,4.55l-.87.78Zm-160.64-4.47l-.83-.83c1.48-1.48,3-2.91,4.55-4.31l.78.87c-1.54,1.38-3.04,2.8-4.51,4.26Zm151.87-4.3c-1.54-1.38-3.12-2.71-4.74-4l.73-.92c1.63,1.3,3.23,2.65,4.79,4.05l-.78.87h0Zm-142.62-3.97l-.73-.91c1.63-1.3,3.3-2.56,5-3.77l.68.95c-1.68,1.2-3.34,2.44-4.95,3.73h0Zm132.92-3.77c-1.69-1.2-3.41-2.35-5.16-3.45l.62-.99c1.77,1.11,3.51,2.28,5.22,3.49l-.68.95h0Zm-122.82-3.41l-.62-.99c1.77-1.11,3.56-2.17,5.39-3.19l.57,1.02c-1.81,1-3.59,2.05-5.33,3.15h0Zm112.31-3.19c-1.81-1-3.65-1.95-5.52-2.85l.51-1.06c1.89.91,3.74,1.87,5.58,2.88l-.57,1.02h0Zm-101.48-2.81l-.51-1.05c1.88-.91,3.78-1.76,5.71-2.56l.45,1.08c-1.91.79-3.79,1.64-5.65,2.53Zm90.29-2.58c-1.91-.79-3.85-1.53-5.81-2.21l.39-1.11c1.97.69,3.94,1.44,5.87,2.24l-.45,1.08h0Zm-78.86-2.16l-.39-1.11c1.97-.69,3.96-1.33,5.97-1.9l.32,1.12c-1.99.57-3.96,1.2-5.91,1.89Zm67.14-1.93c-1.99-.57-3.99-1.08-6.01-1.54l.26-1.14c2.04.46,4.06.98,6.07,1.56,0,0-.32,1.13-.32,1.13Zm-55.23-1.51l-.26-1.14c2.04-.46,4.09-.87,6.15-1.22l.2,1.15c-2.03.34-4.08.75-6.08,1.21Zm43.13-1.23c-2.04-.34-4.09-.63-6.14-.86l.13-1.16c2.07.23,4.16.52,6.21.86,0,0-.19,1.15-.19,1.15Zm-30.91-.84l-.13-1.16c2.06-.23,4.16-.41,6.25-.52l.07,1.17c-2.06.12-4.14.29-6.18.52Zm18.58-.53c-2.04-.11-4.08-.17-6.13-.17l-.07-1.17h.07c2.06,0,4.14.06,6.19.17,0,0-.06,1.17-.06,1.17Z"/>
    <path class="cls-29" d="m595.32,151.55c-8.18,0-14.83-6.65-14.83-14.83s6.65-14.83,14.83-14.83,14.83,6.65,14.83,14.83-6.65,14.83-14.83,14.83Zm0-28.09c-7.32,0-13.27,5.95-13.27,13.27s5.95,13.27,13.27,13.27,13.27-5.95,13.27-13.27-5.95-13.27-13.27-13.27Z"/>
    <path class="cls-56" d="m634.11,388.71c.95-1.5.37-9.94-3.87-15.37-3.62-4.64-7.71-10.36-7.26-14.86-2.48.47-5.03.72-7.37.04-4.42-1.28-16.75-8.74-18.13-9.94-1.38-1.2-4.91,18.21-4.91,18.21,3.71.66,21.57,5.46,28.38,11.79,4.84,4.51,8.25,8.42,10.76,11.7.96-.14,1.8-.62,2.4-1.57h0Z"/>
    <path class="cls-39" d="m639.91,401.69c2.67,1.1,5.52.46,5.98-5.34.46-5.8-7.2-37.38-13.16-39.11-2.39-.69-5.98.53-9.75,1.25-.45,4.5,3.64,10.22,7.26,14.86,4.23,5.43,4.82,13.87,3.87,15.37-.6.95-1.45,1.43-2.4,1.57,5.11,6.68,6.41,10.66,8.2,11.4h0Z"/>
    <path class="cls-14" d="m639.71,402.18c-.32,0-.59-.26-.59-.58,0-.3.22-.55.52-.58,1.11-.13,1.91-.57,2.43-1.33,2-2.93.06-10.35-2.18-18.94-3.27-12.53-10.22-21.69-11.98-22.89-.27-.18-.34-.54-.16-.81.18-.27.54-.34.81-.16,0,0,0,0,0,0,2.11,1.44,9.14,10.85,12.45,23.56,2.41,9.24,4.31,16.53,2.01,19.9-.71,1.05-1.81,1.67-3.26,1.84-.02,0-.05,0-.07,0h0Z"/>
    <path class="cls-19" d="m631.71,390.29c.96-.14,1.8-.62,2.4-1.57.95-1.5.37-9.94-3.87-15.37-3.62-4.64-7.71-10.36-7.26-14.86-2.48.47-5.03.72-7.37.04-1-.29-2.39-.89-3.98-1.66,1.13,7.86-.89,12.49-3.21,14.76,4.88,1.92,9.68,4.31,12.53,6.96,4.84,4.51,8.25,8.42,10.76,11.7h0Z"/>
    <path class="cls-27" d="m525.8,226.65c-4.42,7.73-25.15,78.16-20.74,101.35,4.42,23.19,30.68,27.24,62.33,33.74,26.6,5.46,28.9,5.71,28.9,5.71,0,0,3.03-5.95,5.52-15.64,2.11-8.23,2.77-13.13,2.39-14.54-.63-2.31-17.12-11.23-30.74-11.6-13.62-.37-31.84-5.52-31.84-8.1s20.98-57.79,18.77-82.09c-10.46-13.21-34.6-8.84-34.6-8.84h0Z"/>
    <path class="cls-18" d="m623.65,469.36c1.67-4.77.68-15.13,4.11-19.66-.88-.61-1.62-1.27-2.12-2-2.58-3.77-11.32-27.79-12.15-30.55-.83-2.76-16.56,8.37-16.56,8.37,2.02,3.31,15.16,25.28,16.29,33.59.83,6.13.97,12.59.85,18.43,3.51-.92,7.88-3.32,9.58-8.18Z"/>
    <path class="cls-42" d="m613.31,497.03c.54,2.98,2.88,3.88,4.08,3.37,4.85-2.05,21.84-35.22,20.37-44.3-.36-2.2-6.34-3.86-10-6.4-3.44,4.53-2.44,14.88-4.11,19.66-1.7,4.86-6.06,7.26-9.58,8.18-.2,9.66-1.11,17.6-.76,19.49h0Z"/>
    <path class="cls-19" d="m625.65,447.7c-1.03-1.51-3.05-6.26-5.15-11.6-3.59,7.11-8.83,9.19-12.31,9.75,2.55,5.2,4.62,10.17,5.04,13.25.83,6.13.97,12.59.85,18.43,3.51-.92,7.88-3.32,9.58-8.18,1.67-4.77.68-15.13,4.11-19.66-.88-.61-1.62-1.27-2.12-2h0Z"/>
    <path class="cls-14" d="m613.9,499.27c-.32,0-.59-.25-.59-.58,0-.28.19-.53.47-.58,3.97-.87,10.31-12.28,14.93-22.67,3.95-8.9,6.36-20.43,6.28-21.48-.06-.31.15-.61.46-.67,0,0,0,0,0,0,.31-.06.63.16.69.48.2,1.04-2.38,13.18-6.36,22.15-2.94,6.62-10.37,22.15-15.75,23.34-.04,0-.08.01-.13.01h0Z"/>
    <path class="cls-57" d="m583.44,223.22c1.62,9.5,11.83,25.41,13.65,39.38,2.15,16.5-5.77,55.34-5.03,62.15.74,6.81,5.52,11.78,6.26,19.51s-1.47,16.38,1.1,24.66c2.58,8.28,13.25,18.77,17.3,24.66,4.05,5.89,7.18,14.54,6.81,16.93s-5.87,7.37-11.23,11.41c-5.02,3.78-13.53,8.1-15.18,6.63-1.66-1.47-12.79-18.59-20.34-30.92-7.55-12.33-18.68-30.22-24.66-51.54-7.18-25.58-11.6-84.48-11.23-112.83,13.57-11.37,42.55-10.05,42.55-10.05h0Z"/>
    <path class="cls-29" d="m615.84,412.63h-.03c-.32-.02-.57-.29-.56-.61,0-.06.24-6.43-5.19-14.89-1.44-2.25-3.56-4.6-6.01-7.32-4.76-5.27-10.67-11.84-14.01-20.68-2.25-5.97-2.97-12.57-3.55-17.88-.36-3.27-.66-6.08-1.24-7.82-.55-1.66-1.42-3.16-2.33-4.75-1.78-3.09-3.79-6.59-4.19-12.35-.25-3.49.56-9,1.58-15.99,1.55-10.63,3.49-23.86,3.01-37.87-.56-16.28-2.97-21.62-6.03-28.38-1.28-2.84-2.74-6.06-4.18-10.44-.11-.3.05-.64.35-.75.3-.11.64.05.75.35,0,.01,0,.02.01.04,1.42,4.32,2.8,7.37,4.14,10.32,3.11,6.88,5.56,12.31,6.13,28.82.49,14.12-1.46,27.4-3.02,38.08-1.01,6.91-1.81,12.38-1.57,15.74.39,5.49,2.33,8.87,4.04,11.85.95,1.64,1.84,3.2,2.43,4.97.62,1.85.93,4.73,1.29,8.06.57,5.24,1.28,11.76,3.48,17.59,3.26,8.63,9.1,15.11,13.79,20.31,2.49,2.76,4.64,5.14,6.13,7.47,5.65,8.8,5.39,15.31,5.38,15.58-.02.31-.27.56-.58.56h0Z"/>
    <path class="cls-29" d="m593.85,424.77c-.32,0-.58-.26-.58-.59,0-.28.21-.53.49-.57,3.97-.68,23.09-8.98,27.73-19.84.13-.3.47-.44.77-.31s.44.47.31.77h0c-4.89,11.46-24.38,19.82-28.61,20.54-.03,0-.07,0-.1,0Z"/>
    <path class="cls-44" d="m591.67,138.89c-4.22-2.75-8.11-4.84-12.18-6.45-3.61,4.34-10.97,8.61-22.09,8.61-.18,0-.35,0-.53,0-12.42-.15-18.43-7.39-20.84-11.5-5.25,1.28-10.6,3.4-15.87,6.74-13.73,8.71-6.08,30.55-4.86,42.33,1.23,11.78,8.31,51.44,8.31,51.44,0,0,10.1,6.84,27.77,8.56,17.67,1.72,32.35-11.06,32.06-15.39-.09-1.47-.16-2.95-.22-4.42-.37-9.33,11.04-46.14,13.62-53.5,2.58-7.36,5.03-19.76-5.17-26.41h0Z"/>
    <path class="cls-2" d="m556.87,141.05c.18,0,.35,0,.53,0,11.12,0,18.48-4.27,22.09-8.61-1.24-.49-2.49-.93-3.76-1.32-3.34,3.33-9.59,6.36-18.82,6.24-9.62-.12-14.68-5.13-17.05-8.62-1.27.22-2.55.49-3.84.8,2.41,4.11,8.42,11.35,20.84,11.5Z"/>
    <path class="cls-26" d="m573.47,197.21c-.44-14.9,8.23-45.18,18.64-58.01-.15-.1-.29-.21-.44-.31-1.78-1.17-3.61-2.27-5.48-3.3-1.79,1.96-4,4.61-6.4,7.99-3.52,4.96-13.86,26.69-29.82,24.91-18.61-2.08-17.99-28.62-17.18-38.05-1.35.42-2.67.89-3.98,1.41-2.72,5.47-5.23,14.72-5.71,22.9-.61,10.31,1.6,40.61-.25,48.71-.48,2.11-1.67,3.33-3.15,3.98,2.01,11.93,3.92,22.62,3.92,22.62,0,0,10.1,6.84,27.77,8.56,17.67,1.72,32.35-11.06,32.06-15.39-.09-1.47-.16-2.95-.22-4.42-.03-.65,0-1.45.09-2.35-6.65-.18-9.51-7.66-9.85-19.25h0Z"/>
    <path class="cls-24" d="m520.25,92.25c-1.14,1.68-.83,4.71,1.62,6,2.16,1.13,5.12,1.32,6.26-.37,1.14-1.68-.14-4.84-2.16-6.21-2.02-1.36-4.58-1.11-5.72.58Z"/>
    <path class="cls-61" d="m570.6,129.78c-1.54-13.46-5.91-34.1-8.11-38.81,0,0-17.55,15.89-16.08,24.32.76,4.38.74,8.94.48,12.64-2.35.14-4.7.4-7.02.8,2.37,3.49,7.43,8.5,17.05,8.62,9.23.11,15.47-2.92,18.82-6.24-1.69-.52-3.4-.97-5.13-1.34Z"/>
    <path class="cls-62" d="m567.63,87.47c-1.09-1.62-3.5-1.9-5.48-.71.24-4.5.47-11.49-1.56-13.79-2.82-3.19-11.59-12.09-28.04-7.3-16.44,4.79-11.17,18.9-11.17,18.9.86,4.91,8.47,33.87,24.66,32.67,11.83-.87,15.05-16.66,15.77-23.65,1.25.5,2.85.33,4.21-.59,2.02-1.37,2.74-3.84,1.6-5.52h0Z"/>
    <path class="cls-29" d="m531.68,94.29c.08.77-.47,1.47-1.25,1.56,0,0,0,0,0,0-.77.08-1.47-.47-1.56-1.25,0,0,0,0,0,0l-.32-2.93c-.08-.77.48-1.47,1.25-1.55.77-.08,1.47.48,1.55,1.25l.32,2.93h0Zm20.63-4.31c.08.77-.48,1.47-1.25,1.56-.77.08-1.47-.48-1.56-1.25h0l-.32-2.93c-.1-.77.44-1.48,1.21-1.58.77-.1,1.48.44,1.58,1.21,0,.02,0,.04,0,.07l.32,2.93h0Z"/>
    <path class="cls-15" d="m539.72,87.88c-.67,1.41-4.11,11.47-3.25,12.64.86,1.17,5.17.51,5.35.14.18-.37-.68-2.97-1.18-6.7-.5-3.66-.92-6.07-.92-6.07h0Z"/>
    <path class="cls-28" d="m526.49,88.46c-.32,0-.59-.26-.59-.59,0-.04,0-.08.01-.12.23-1.14,1.38-2.18,2.84-2.59,1.74-.49,3.45,0,4.7,1.35.23.23.22.6,0,.83s-.6.22-.83,0c0,0-.02-.02-.02-.03-1.33-1.43-2.91-1.19-3.52-1.02-1.02.29-1.87,1-2.01,1.7-.06.27-.3.47-.57.47Zm20.54-3.74c-.32,0-.59-.26-.59-.59,0-.11.03-.21.08-.3.93-1.53,2.44-2.34,4.14-2.2,1.56.12,3.04,1.04,3.51,2.18.13.3,0,.64-.3.77s-.64,0-.77-.3c0,0,0-.02-.01-.03-.26-.64-1.28-1.37-2.52-1.46-.73-.06-2.1.08-3.04,1.64-.11.18-.3.28-.5.28h0Z"/>
    <path class="cls-2" d="m537.39,107.02c1.34.05,3.03-.02,5.52-.6,2.33-.54,4.82-2.75,4.82-2.75,0,0-.02,5.97-3.16,6.66-3.93.86-7.18-3.31-7.18-3.31Z"/>
    <path class="cls-9" d="m572.23,87.23c-.64-6.58-4.34-8.31-5.02-10.22s1.99-3.77.89-8.31c-1.32-5.43-8.9-6.44-8.01-9.6.53-1.89,5.84-.01,9.57-2.27,3.34-2.03,1.66-7.19-1.66-7.36-2.91-.15-5.49,1.47-5.71-.31-.24-2.02,2.7-1.44,3.93-4.88,1.03-2.87-1.81-6.47-4.82-5.61-2.51.72-3.99,1.96-5.18,1.17-1.78-1.19-.18-4.39-2.52-6.69-2.04-2.01-6.1-1.07-8.22,2.09-2.33,3.48-1.77,8.34-3.37,8.83-1.5.46-1.32-1.33-3.16-1.52-3.81-.38-5.53,3.42-3.24,6.72,1.85,2.66,6.33,3.34,5.3,6.09-.62,1.67-6.6,2.96-11.6,4.54-6.24,1.98-10.89,5.29-12.27,10.31-1.49,5.4,1.32,9.04,1.19,11.19s-3.47,1.94-3.83,4.89c-.31,2.5,2.83,5,5.51,6.37.07-.14.14-.28.23-.41.6-.89,1.61-1.37,2.71-1.43-.29-.92-.63-2.04-.77-2.74-1.13-5.5,4.59-11.06,8.08-14.25,3.5-3.19,4.48-5.71,4.48-5.71,0,0,1.35,2.64,6.99,7.79,5.64,5.15,7.61,2.64,13.68,4.17,4.92,1.24,6.02,3.78,6.65,6.72,1.99-1.24,4.45-.97,5.55.67,1.14,1.68.42,4.16-1.6,5.52-.74.51-1.6.8-2.49.86.51,1.64,1.07,3.73,1.65,6.11,5.02-1.98,7.59-7.08,7.04-12.74h0Z"/>
    <path class="cls-32" d="m551.71,143.45l-195.48-16.33s9.75,60.87-7.61,127.2c-6.11,23.31-13.94,46.14-23.41,68.31l153.86,2.06h0,.07c8.78-.26,10.54,13.72,14.05,22.11,3.51,8.39,7.49,17.85,20.14,16.88,11.05-.85,17.34-15.26,19.84-22.57,5.33-18.62,11.27-27.61,19.33-82.1,9.05-61.19-.78-115.55-.78-115.55Z"/>
    <path class="cls-3" d="m416.5,268.54c10.59-36.51,12.8-71.55,12.67-95.54l-70.25-7.7c.3,23.56-1.56,55.6-10.31,89.02-6.11,23.31-13.94,46.14-23.41,68.31l71.67.96c6.64-15.62,13.57-34.17,19.62-55.05h0Z"/>
    <circle class="cls-6" cx="389.89" cy="217.25" r="26.34"/>
    <path class="cls-11" d="m407.59,262.96c-.27,2.03-2.13,3.46-4.16,3.19l-41.58-5.52c-2.03-.27-3.46-2.13-3.19-4.16.27-2.03,2.13-3.46,4.16-3.19l41.58,5.52c2.03.27,3.46,2.13,3.19,4.16h0Zm-4.95,19.15c-.27,2.03-2.13,3.46-4.16,3.19h0s-41.58-5.52-41.58-5.52c-2.03-.25-3.48-2.1-3.23-4.13.25-2.03,2.1-3.48,4.13-3.23.03,0,.05,0,.08.01l41.58,5.52c2.03.27,3.46,2.13,3.19,4.16,0,0,0,0,0,0h0Z"/>
    <path class="cls-31" d="m535.74,184.68l-192.41-21.09.02-24.9,192.41,18.28-.02,27.71Z"/>
    <path class="cls-36" d="m464.73,168.85s-.05,0-.08,0c-3.96-.39-5.78-2.9-7.38-5.12-1.54-2.14-3-4.15-6.26-4.48-3.26-.32-5.08,1.37-7.02,3.17-2,1.86-4.27,3.97-8.23,3.58-3.96-.39-5.77-2.9-7.37-5.11-1.54-2.14-3-4.15-6.26-4.48-3.27-.32-5.09,1.37-7.02,3.17-2,1.86-4.27,3.97-8.23,3.58-3.96-.39-5.77-2.9-7.38-5.12-1.54-2.14-3-4.15-6.26-4.48-3.26-.32-5.08,1.37-7.02,3.17-2,1.86-4.27,3.97-8.23,3.58s-5.77-2.9-7.37-5.11c-1.54-2.14-3-4.15-6.26-4.48-3.27-.32-5.09,1.37-7.02,3.17-2,1.86-4.27,3.97-8.23,3.58-.43-.04-.74-.42-.7-.85.04-.43.42-.74.85-.7,0,0,0,0,0,0,3.26.32,5.08-1.37,7.02-3.17,2-1.86,4.27-3.97,8.23-3.58,3.96.39,5.77,2.9,7.37,5.11,1.54,2.14,3,4.15,6.26,4.48,3.26.32,5.08-1.37,7.02-3.17,2-1.86,4.27-3.96,8.23-3.58,3.96.39,5.77,2.9,7.37,5.11,1.54,2.14,3,4.15,6.26,4.48,3.26.32,5.08-1.37,7.02-3.17,2-1.86,4.27-3.97,8.23-3.58,3.96.39,5.77,2.9,7.37,5.11,1.54,2.14,3,4.15,6.26,4.48,3.27.32,5.09-1.37,7.02-3.17,2-1.86,4.27-3.97,8.23-3.58,3.96.39,5.77,2.9,7.38,5.12,1.54,2.14,3,4.15,6.26,4.48.43.04.74.43.7.85-.04.4-.37.7-.77.7h0Z"/>
    <path class="cls-23" d="m521.44,170.65s-.08,0-.12,0l-34.42-3.54c-.64-.07-1.11-.64-1.04-1.28.07-.64.64-1.11,1.28-1.04l34.42,3.54c.64.06,1.11.63,1.05,1.28-.06.6-.57,1.06-1.17,1.06Z"/>
    <circle class="cls-36" cx="521.35" cy="169.57" r="6.42"/>
    <path class="cls-2" d="m429.82,228.44c0-3.02,2.45-5.46,5.46-5.46h147.91c3.02,0,5.46,2.45,5.46,5.46v109.59c0,3.02-2.45,5.46-5.46,5.46h-147.91c-3.02,0-5.46-2.45-5.46-5.46v-109.59Z"/>
    <path class="cls-10" d="m583.18,222.97h-55.23c-3.4,1.58-6.06,3.99-7.29,7.85-2.78,8.73,1.12,17.26,4.83,21.23,3.7,3.97,8.2,11.64-.79,13.49-8.99,1.85-20.37-2.35-28.3-3.04-12.1-1.06-28.43-1.39-36.04,10.31-5.62,8.66-1.32,16.93,4.99,18.08,4.82.88,9.95-1.39,11.9-5.95,1.8-4.21-.36-7.89-3.47-8.53-3.21-.66-6.24,1.52-6.88,3.54-.6,1.88.52,2.88,1.72,2.78,1.92-.17,2.74-1.85,3.5-1.06.97,1.02-.48,3.52-3.3,4.03-2.13.39-4.81-.12-5.42-3.97-.57-3.61,1.26-6.91,5.49-8.79,3.93-1.75,8.59-.92,11.5,3.17,2.91,4.1,2.02,11.21-1.85,14.75-5.77,5.28-12.9,5.94-23.94,8.53-7.46,1.75-17,4.05-24.8,8.27v30.37c0,3.02,2.45,5.46,5.46,5.46h147.91c3.02,0,5.46-2.45,5.46-5.46v-109.59c0-3.02-2.44-5.46-5.46-5.46h0,0Z"/>
    <path class="cls-55" d="m583.18,222.97h-8.09c-2.61,1.28-5.46,2.17-8.36,2.27-10.16.35-24.51-2.69-31.75,6.83-5.75,7.56-.5,15.93,2.78,20.13,2.21,2.83,5.61,13.13-4.16,15.77-12.1,3.27-23.12-1.01-30.94-2.48-9.69-1.82-16.96,1.22-18.25,5.06-2.18,6.49,6.79,8.08,6.25,16.76-.46,7.37-12.92,13.77-30.65,16.37-19.87,2.91-27.39,10.32-27.67,19.17-.26,8.46,5.85,12.56,13.29,13.26,7.12.66,16.33-.94,16.84,7.37h27.27c-2.63-11.95,9.54-11.36,16.99-13.03,8.86-1.98,25.13-5.75,29.75-20.33,4.27-13.44-6.84-15.36-5.95-26.35.79-9.75,19.24-13.53,37.03-17.32,18-3.83,15.08-12.43,14.02-16.66,0,0-2.44-11.4,7.08-15.47v-5.89c0-3.02-2.45-5.46-5.46-5.46h0Z"/>
    <path class="cls-17" d="m547.58,292.25c-3.27,7.77,7.64,9.65,5.42,24.46-1.97,13.17-24.46,11.37-31.74,15.74-4.34,2.6-4.86,7.51-4.58,11.04h66.51c3.02,0,5.46-2.45,5.46-5.46v-54.35c-8.18,5.07-36.87-1.4-41.07,8.57h0Z"/>
    <path class="cls-37" d="m581.57,249.8c1.06,4.23,3.98,12.83-14.02,16.66-17.79,3.79-36.23,7.57-37.03,17.32-.89,10.99,10.22,12.91,5.95,26.35-4.63,14.58-20.89,18.35-29.75,20.33-7.45,1.67-19.62,1.08-16.99,13.03h26.95c-.28-3.54.25-8.44,4.58-11.04,7.27-4.36,29.77-2.57,31.74-15.74,2.21-14.81-8.69-16.7-5.42-24.46,4.2-9.98,32.89-3.51,41.07-8.57v-49.34c-9.52,4.06-7.08,15.47-7.08,15.47h0Z"/>
    <path class="cls-45" d="m571.19,234.26c-3.78.28-7.01,3.83-11.37,4.43-4.36.59-12.17,1.39-15.9,8.07-3.72,6.64-.24,16.62,7.54,17.26,10.48.86,13.19-8.66,15.97-11.6,2.53-2.68,6.26-5.47,8.63-9.02,2.34-3.51.87-9.56-4.86-9.13Z"/>
    <path class="cls-54" d="m484.41,323.08c6.11,1.2,15.87-.09,19.04-4.23,3.04-3.97,1.32-8.73,3.97-11.24,2.65-2.51,13.3-9.81,15.34-13.89,1.85-3.7.4-8.46-3.83-9.92-4.1-1.41-7.67.4-9.52,4.1-1.85,3.7-3.57,9.26-10.71,13.36-5.96,3.42-19.39,7.09-21.29,13.22-1.52,4.89,2.65,7.74,7.01,8.6h0Z"/>
    <path class="cls-31" d="m494.22,242.68c0,4.08-3.31,7.4-7.4,7.4h-37.83c-4.08,0-7.4-3.31-7.4-7.4v-1.14c0-4.08,3.31-7.4,7.4-7.4h37.83c4.08,0,7.4,3.31,7.4,7.4v1.14Z"/>
    <path class="cls-6" d="m421.62,412.93h0s-1.24-.04-1.24-.04l-.23.15-7,.92-21.02,9.9-4.49,47.15h66.01c-18.16,0-10.98-58.32-32.03-58.07Zm71.57-66.14c-3.51-8.39-5.27-22.37-14.05-22.11h-.07s0,0,0,0h-.8s-.08.06-.08.06l-22.07,4.23-11.97,34.76h67.33,0c-11.2-.05-14.96-8.98-18.3-16.94h0Z"/>
    <path class="cls-43" d="m479.06,324.69l-195.43-2.62c-6.71,10.84-10.16,35.71-9.48,53.34.31,8.07-.33,20.63-1.53,33.03l148.99,4.5h0c21.05-.25,13.86,58.07,32.03,58.07,8.06,0,16.13-2.86,9.49-72.31-6.61-69.21,9.3-73.78,15.93-74h0Z"/>
    <path class="cls-11" d="m399.72,560.96s.05-.06.08-.09c15.61-15.35,12.25-58.31,10.78-80.55-1.55-23.52-8.05-64.21,8.99-67.2.71-.12,1.39-.19,2.05-.19h0s-159.8-4.82-159.8-4.82c-41.89,17.62-41.5,39.88-40.72,64.33.55,17.17-3.64,40.58-7.54,45.78l186.17,42.75h0Z"/>
    <path class="cls-2" d="m285.48,408.82c-12.82,7.26-16.66,20.38-17.41,35.66l94.71,7.02c-.4-26.06,6.96-33.65,14.94-39.89l-92.23-2.78Z"/>
    <path class="cls-19" d="m363.93,468.83l-95.83-9.23c.56,14.65,2.1,30.1.34,43.65-1.35,10.41-4.2,19.36-6.88,25.98l99.29,22.8c5.34-10.6,9.85-33.47,4.16-74.53-.42-3.04-.78-5.93-1.08-8.67h0Z"/>
    <path class="cls-6" d="m342.86,484.38s-.08,0-.11,0l-60.78-5.85c-.64-.06-1.12-.63-1.05-1.28.06-.64.63-1.12,1.28-1.05l60.78,5.85c.64.06,1.12.63,1.06,1.27-.05.61-.56,1.07-1.17,1.07Zm1.05,14.28s-.08,0-.12,0l-61.37-6.42c-.64-.07-1.11-.64-1.04-1.29s.64-1.11,1.29-1.04l61.37,6.42c.64.07,1.11.64,1.04,1.29-.06.6-.56,1.05-1.16,1.05Zm.21,13.41s-.09,0-.13,0l-61.9-6.71c-.64-.06-1.12-.63-1.06-1.27.06-.64.63-1.12,1.27-1.06.02,0,.03,0,.05,0l61.9,6.71c.64.07,1.11.65,1.04,1.29-.07.59-.56,1.04-1.16,1.04h0Zm-1.14,16.59c-.06,0-.12,0-.18-.01l-62.1-9.65c-.64-.1-1.08-.7-.98-1.34,0,0,0,0,0,0,.1-.64.7-1.07,1.34-.98l62.1,9.65c.64.1,1.08.69.98,1.33-.09.57-.58,1-1.16.99h0Z"/>
    <path class="cls-36" d="m301.61,434.96c1.24-7.54,3.71-14.24,8.28-19.56l-23.6-.98c-4.4,5.21-6.82,11.72-8.06,19.02l23.38,1.52h0Z"/>
    <path class="cls-2" d="m362.98,351.43c-2.49,28.26-3.14,43.65-3.14,43.65l65.32,1.92s.66-15.33,3.1-44.11c1.05-12.39,3.59-21.94,6.14-28.8l-65.29-.87c-2.51,6.6-5.05,15.92-6.13,28.21Z"/>
    <path class="cls-31" d="m375.61,310.64s-3.24,4-6.5,12.58l65.29.87c3.37-9.07,6.76-13.45,6.76-13.45h-65.55Z"/>
    <path class="cls-11" d="m418.85,338.6h-40.97c-.65,0-1.17-.52-1.17-1.17s.52-1.17,1.17-1.17h40.97c.65,0,1.17.52,1.17,1.17s-.52,1.17-1.17,1.17Zm-4.15,22.51h-.01l-40.97-.39c-.65,0-1.17-.53-1.16-1.18h0c0-.65.53-1.17,1.18-1.16,0,0,0,0,0,0l40.97.39c.65,0,1.17.53,1.17,1.18s-.53,1.17-1.18,1.17Zm-1.9,22.56h-.02l-40.97-.78c-.65-.01-1.16-.55-1.15-1.19s.55-1.16,1.19-1.15l40.97.78c.65.01,1.16.55,1.15,1.19-.01.64-.53,1.15-1.17,1.15Z"/>
    <circle class="cls-28" cx="377.88" cy="337.43" r="4.49"/>
    <circle class="cls-36" cx="373.73" cy="359.56" r="4.49"/>
    <circle class="cls-29" cx="371.77" cy="381.69" r="4.49"/>
    <path class="cls-38" d="m638.71,194.17c-.18-3.65-8.26-17.02-20.17-30.72-10.1,2.74-15.99,13.84-17.1,17.31,7.87,7.5,15.5,15.52,15.77,16.81.37,1.72-1,12.97-5.54,24.62-4.54,11.66-12.54,25.47-14.57,26.21-.93.34-1.38-.15-2.67-.7s-5.77-.31-5.77-.31v10.43s-3.99,3.56-6.44,5.22c-2.45,1.66-7.42,5.06-6.99,6.07.74,1.74,6.69-1.53,6.69-1.53,0,0-2.7,2.48-4.54,3.77-1.84,1.29-2.7,2.48-2.45,3.22.3.9,3.8.06,3.8.06,0,0-.86,1.17.18,1.6,1.04.43,3.93-.31,6.93-1.84,3.01-1.53,5.09-3.19,5.09-3.19,0,0-.77,1.95-2.58,4.17-.91,1.12-3.62,3.2-2.88,4.08,1.44,1.7,10.49-7.09,13.53-10.77s5.37-8.1,6.84-12.03c1.47-3.93,10.11-10.29,20.01-26.5,9.88-16.16,13.08-31.71,12.86-35.99h0Z"/>
    <path class="cls-14" d="m588.29,257.96c.4-.32.76-.72,1.12-1.12.35-.4.69-.81,1.02-1.23.64-.84,1.26-1.73,1.61-2.66h0c.08-.21.31-.31.51-.23.2.08.3.31.22.51,0,0,0,0,0,0-.5,1.06-1.2,1.89-1.92,2.71-.36.4-.74.79-1.13,1.17-.4.37-.78.75-1.25,1.07-.07.04-.16.03-.2-.04-.04-.06-.03-.15.03-.19h0s0,0,0,0Zm-6.62,9.6c.63-.45,1.26-.9,1.87-1.37l.92-.7c.3-.24.61-.48.87-.72h0c.16-.15.41-.14.55.02.15.16.14.41-.02.55,0,0-.02.02-.03.02-.34.26-.66.46-.99.68l-.99.62c-.66.41-1.33.81-2,1.2-.09.05-.19.02-.24-.07-.04-.08-.02-.18.06-.24h0Zm-3.17,7.03c.86-.39,1.69-.9,2.51-1.4.82-.51,1.62-1.04,2.4-1.6.78-.55,1.54-1.14,2.26-1.76.71-.62,1.41-1.29,1.89-2.04h0c.12-.19.36-.24.54-.13.18.12.23.36.12.54h0v.02c-.63.85-1.38,1.49-2.15,2.1-.77.6-1.57,1.16-2.4,1.68-.82.52-1.65,1.01-2.5,1.48-.86.46-1.7.93-2.62,1.28-.05.02-.1,0-.12-.06-.02-.04,0-.09.05-.11h0Z"/>
    <path class="cls-2" d="m618.54,163.45l-.26-.3c-.98-1.12-1.98-2.21-3-3.29-9.29,3.5-14.98,12.47-17.27,17.69,1.15,1.06,2.29,2.13,3.42,3.21,1.11-3.47,7-14.57,17.1-17.31Z"/>
    <path class="cls-63" d="m591.74,138.94c.12.08.24.17.36.25-4.17,5.14-8.06,13.08-11.2,21.71,2.85,4.88,8.38,8.88,12.99,12.92,1.39,1.22,2.76,2.47,4.12,3.72,2.29-5.22,7.97-14.2,17.27-17.69-7.37-7.83-17.65-16.99-23.55-20.92h0Z"/>
    <path class="cls-49" d="m591.26,138.63c-.15-.09-.3-.2-.44-.29h0s.44.29.44.29Z"/>
    <path class="cls-13" d="m506.32,139.66c-.95-1.91-5.92-7.27-15.48-8.25s-13.37,2.06-14.53,2.93c-1.56,1.17-4.68,6.1-3.12,6.49s4.15-3.59,5.76-2.78c.83.42-3.07,4.15-2.34,6.44.46,1.45,2.93-.34,2.93-.34,0,0-.98,2.04-.06,2.82s4.01-1.56,4.01-1.56c0,0-.2,2.2,1.76,1.9s9.06-8.23,10.92-8.5l10.17.85Z"/>
    <path class="cls-14" d="m483.39,145.32c.59-.77,1.1-1.7,1.67-2.55.55-.87,1.14-1.72,1.75-2.55.62-.83,1.27-1.64,2.01-2.38.75-.72,1.56-1.47,2.75-1.74.21-.05.42.09.47.3.05.21-.09.42-.3.47h-.02s-.02,0-.02,0c-.86.14-1.7.78-2.42,1.44-.74.68-1.41,1.44-2.05,2.23-.64.8-1.25,1.61-1.84,2.45-.61.83-1.11,1.69-1.81,2.52-.05.05-.12.06-.18.01-.05-.04-.06-.11-.02-.17l.02-.03h0Zm-4.01-1.23c.3-.74.7-1.36,1.1-2.01.4-.64.83-1.27,1.27-1.88.45-.62.92-1.21,1.43-1.78.53-.56,1.04-1.14,1.87-1.52.2-.09.43,0,.52.19.09.2,0,.43-.19.52h-.02s-.03.02-.03.02c-.56.21-1.14.74-1.66,1.24-.52.53-1.01,1.08-1.48,1.66-.47.58-.92,1.17-1.35,1.78-.42.61-.87,1.24-1.17,1.88h0c-.03.09-.12.13-.2.09-.08-.03-.11-.12-.08-.2h0Z"/>
    <path class="cls-11" d="m156.2,319.75h74.31v70.33h-74.31v-70.33Z"/>
    <path class="cls-19" d="m175.41,342.95c0-3.3,2.68-5.98,5.98-5.98h23.93c3.3,0,5.98,2.68,5.98,5.98v23.93c0,3.3-2.68,5.98-5.98,5.98h-23.93c-3.3,0-5.98-2.68-5.98-5.98v-23.93h0Z"/>
    <path class="cls-2" d="m203.33,346.06c-.9-.63-2.13-.4-2.76.49,0,0,0,0,0,0l-7.32,10.52-8.12-6.96c-.66-.56-1.65-.48-2.21.17-.49.58-.5,1.42-.02,2.01l8.89,10.86c.92,1.12,2.57,1.29,3.7.37.26-.21.47-.47.63-.76l.05-.09,7.78-14.04c.49-.89.23-2.01-.6-2.59h0Z"/>
    <path class="cls-52" d="m245.49,220.9c-13.84,6.84-38.1,27.77-43.91,37.45-8.38,13.98-17.64,40.35-15.3,61.42,5.3,0,9.32-.03,9.32-.03,0,0,1.56.88,1.66,5.76.08,3.9.12,6.08,1.82,5.89,1.69-.2,3.93-6.41,3.22-12.34-.68-5.66-4.27-7.02-3.51-12.83,1.95-15.02,14.56-32.11,17.95-35.9,2.25-2.51,20.41-18.28,32.58-23.02-3.53-8.08-4.49-20.86-3.83-26.4h0Z"/>
    <path class="cls-53" d="m240.44,223.73c-1.47,5.91-.1,16.93,4.49,25.59,6.33-3.45,14.6-5.11,19.27-5.34,15.21-.75,17.96-35.04,17.96-35.04-7.71.09-24.19,3.97-41.72,14.79Z"/>
    <path class="cls-29" d="m244.94,249.91c-.22,0-.42-.12-.52-.31-4.87-9.17-5.98-20.25-4.54-26.01.08-.31.4-.5.71-.43s.5.4.43.71c-1.4,5.63-.12,16.58,4.44,25.18.15.29.04.64-.24.79-.08.04-.18.07-.27.07h0Z"/>
    <path class="cls-36" d="m249.3,247.84c-.24,0-.45-.14-.54-.36-3.66-8.68-5.06-23.03-3.82-26.77.1-.31.43-.47.74-.37.31.1.47.43.37.74-1.03,3.14.07,17.13,3.79,25.95.13.3-.01.64-.31.77-.07.03-.15.05-.23.05h0Z"/>
    <path class="cls-33" d="m249.18,300.23c-2.08,3.86-5.24,14.39-7.8,23.41-2.13,7.49-3.27,12.81-7.28,21.98-4.36,9.97-10.79,19.51-14.83,27.18-4.03,7.67-7.41,15.61-9.1,21.2s-1.56,9.23-3.64,13.4-4.94,9.23-13.92,16.26c-8.97,7.02-10.01,11.45-10.14,13.27s-.37,4.29-2.06,6.63-12.37,9.62-16.27,17.69-2.47,23.02-2.47,23.02l14.44,11.19s2.12-1.44,4.68-2.67c2.79-1.34,7.49-2.69,10.14-5.66,3.84-4.29,11.58-20.35,16.78-27.05,8.36-10.77,10.28-26.66,24.32-40.19s20.29-28.87,28.87-40.58c8.58-11.71,14.18-27.64,19.25-37.2,5.07-9.56,13.27-37.26,13.27-37.26l-44.22-4.62h0Z"/>
    <path class="cls-22" d="m158.8,523.82h0c-.09-.89-.1-1.65-.01-2.22.86-5.76,9.01-20.14,18.44-26.87-.03-2.44-3.18-6.63-7.14-9.53-4.78-3.5-8.63-3.83-8.63-3.83-1.5,2.83-12.53,24.34-15.56,26.19,3.12.49,9.78,4.74,12.89,16.27h0Z"/>
    <path class="cls-50" d="m134.31,515.74c-1.47,4.48,2.15,12.78,10.34,26.34,8.19,13.56,17.46,20.74,19.9,19.9,3.35-1.16,2.89-5.4,2.37-8.2-.45-2.41-7.34-21.93-8.11-29.96h0c-3.11-11.54-9.77-15.79-12.89-16.28-3.02,1.85-10.58,5.07-11.61,8.19Z"/>
    <path class="cls-41" d="m158.47,548.33c-3.32-4.03-5.85-8-9.49-18.08s-7.3-13.62-10.71-14.5c-2.06-.53-3.5.43-4.26,1.95-.14,4.79,3.52,12.59,10.65,24.39,8.19,13.56,17.46,20.74,19.9,19.9.34-.12.66-.28.95-.49,2.2-1.98-3.73-9.16-7.03-13.17h0Z"/>
    <path class="cls-20" d="m177.24,494.72c-.03-2.44-3.18-6.63-7.14-9.53-4.78-3.5-8.63-3.83-8.63-3.83-.69,1.31-3.42,6.61-6.45,12.11,2.39.39,9.91,3.89,12.7,10.89,2.81-3.7,6.08-7.18,9.52-9.64Z"/>
    <path class="cls-16" d="m311.09,304.39c2.08,5.85,20.2,77.48,14.83,90.52-4.32,10.5-31.94,22.32-38.24,24.58-5.91,2.12-12.23,2.73-16,5.72s-7.8,7.41-15.22,8.19c-7.41.78-15.09-1.04-18.6-5.33s-12.08-20.03-1.43-27.96c6.63-4.94,14.77-3.26,18.86-4.03,5.09-.96,19.15-8.97,27.44-12.09,6.81-2.57,11.44-2.86,11.44-2.86,0,0-4.03-10.8-10.01-21.98s-23.8-39.8-17.56-60.61c26.99-5.79,44.48,5.85,44.48,5.85h0Z"/>
    <path class="cls-30" d="m244.73,418.2c-1.46-6.34-7.02-9.13-8.18-9.01-1.85.2-12.01,7.51-16.11,8.42-.37.08-.83.12-1.36.13,2.11,1.89,3.5,4.87,2.27,10.99-.93,4.66-1.5,8.08-1.69,10.35,1.68-3.18,3.53-5.59,5.17-6.35,4.61-2.11,17.07-2.34,17.95-2.73s3.41-5.46,1.95-11.8Z"/>
    <path class="cls-51" d="m219.08,417.75c-3.68.09-10.65-1.11-15.03,2.5-6.47,5.33-5.17,47.21-5.07,50.24s1.35,7.06,5.37,6.73c6.73-.55,8.88-15.31,10.34-23.7.83-4.76,2.76-10.25,4.97-14.43.19-2.27.76-5.69,1.69-10.35,1.23-6.11-.16-9.1-2.27-10.99Z"/>
    <path class="cls-25" d="m206.39,454.88c.52-7.75,3.95-24.48,3.07-29.75-.67-4.03-3.87-4.32-6.34-3.78-5.4,8.42-4.23,46.27-4.14,49.14.08,2.51.96,5.71,3.56,6.54,4.17-1.74,3.4-15.34,3.86-22.15Z"/>
    <path class="cls-29" d="m244.09,415.55l-.92-.72c5.36-6.82,23.01-10.19,33.55-12.2l2.3-.44c11.16-2.13,28.03-5.34,32.98-15.66,6.91-14.39-10.18-76.65-18.53-88.09l.95-.69c8.45,11.56,25.66,74.66,18.64,89.28-5.21,10.85-22.42,14.13-33.82,16.3l-2.3.44c-9.7,1.85-27.76,5.3-32.85,11.77h0Z"/>
    <path class="cls-35" d="m293.17,380.7c.84-.14,1.69-.25,2.54-.33.85-.08,1.71-.12,2.57-.12,1.72,0,3.46.15,5.17.67.31.09.49.42.39.73-.09.31-.42.49-.73.39h-.03s0-.01,0-.01c-1.51-.54-3.17-.77-4.82-.85-.83-.04-1.66-.04-2.5,0-.84.03-1.67.1-2.5.2-.19.02-.35-.12-.37-.3-.02-.17.1-.33.27-.37h0s0,0,0,0Z"/>
    <path class="cls-12" d="m244.73,418.2c-1.46-6.34-7.02-9.13-8.18-9.01-1.24.13-6.22,3.46-10.59,5.92,3.02,2.27,6.68,7.22,2.8,16.49,5.56-1.09,13.34-1.3,14.03-1.6.88-.39,3.41-5.46,1.95-11.8h0Z"/>
    <path class="cls-34" d="m331.6,155.59c2.2,5.03,6.78,7.91,7.27,9.57s-2.83,4.24-4.68,4.83-2.59-14.4-2.59-14.4h0Z"/>
    <path class="cls-46" d="m324.43,143.12c8.68,7.9,14.77,36.01,7.71,45.94-7.26,10.2-17.11,5.6-17.11,5.6,0,0-17.83-16.04-15.57-28.33,3.71-20.09,24.97-23.22,24.97-23.22h0Z"/>
    <path class="cls-4" d="m310.44,183.18c3.38,1.43,9.66,2.47,10.81,12.49s-.02,14.96-.02,14.96c0,0-9.62,6.11-18.6,4.55s-9.23-4.03-9.23-4.03c0,0,6.24-14.96,6.11-23.93s10.93-4.03,10.93-4.03Z"/>
    <path class="cls-31" d="m330.27,160.82c.21.95,0,1.73-.78,1.97-.78.23-1.61-.21-1.84-.99l-1.21-4.44c-.23-.78.21-1.61.99-1.84.78-.23,1.61.21,1.84.99l1,4.31h0Z"/>
    <path class="cls-28" d="m332.64,181.63c-1.26,0-2.1-.43-2.58-.78-.9-.66-1.46-1.7-1.41-2.65,0-.32.27-.58.6-.57s.58.27.57.6c0,0,0,.02,0,.03-.02.47.26,1.16.93,1.65.95.69,2.37.74,4,.12.3-.11.64.04.75.34.11.3-.04.64-.34.75,0,0,0,0,0,0-.98.37-1.82.5-2.52.5h0Z"/>
    <path class="cls-58" d="m309.08,165.03c1.01-1.37,3.71-1.95,5.27-.06s2.02,3.25,3.12,2.8,4.49-2.41,3.84-7.02c-.55-3.87-.64-6.75.2-9.3,1.14-3.5,8.19-5.06,12.88-16.37s4.33-20.81,2.15-21.31c-2.1-.49-2.59,2.98-3.27,2.59s-.34-3.61-3.76-3.37c-4.82.34-8.26,8.07-12.24,9.8-3.02,1.32-9.04.33-13.85,4.88-4.44,4.19-2.88,6.93-5.41,9.66s-13.79,8.87-13.17,21.51c.65,13.17,6.6,16.88,9.43,21.43,2.38,3.83,3.14,7.46,4.41,7.95s13.93.04,14.84-6c.44-2.9-.45-6.86-3.19-9.88s-2.56-5.47-1.24-7.28h0Z"/>
    <path class="cls-40" d="m480.56,178.63c-1.7,1.43-7.08,3.76-7.96,2.92-.63-.6,1.07-2.15,3.02-4.78s4.06-7.28,2.44-7.61c-1.25-.25-4.29,2.93-5.85,4.29s-4.13,2.5-6.6,4.91c-2.3,2.24-2.21,3.64-4.81,5.66-2.45,1.9-29.26,13.33-55.02,18.79-7.74,1.64-16.25,2.41-24.7,2.72,2.74,5.95,4.51,15.77,1.76,24.77,10.74-2.51,22.8-5.8,34.38-10.19,28.48-10.79,46.56-25.36,50.85-27.18s8.19-2.28,14.44-4.68c4.15-1.6,11.26-6.3,13.64-7.91l-15.6-1.71h0Z"/>
    <path class="cls-60" d="m381.08,205.53c-19.65.72-38.96-1.07-47.49-.18-9.9,1.03-12.22,4.5-30.43,4.29-3.79-.04-16.44-1.15-20.86-.87-3.53.22-6.52,2.04-9.44,7.44-4.94,9.11-13.92,42.92-25.23,59.05-8,11.4-13.75,27.56-13.01,29.39.55,1.37,5.13-.34,9.36-.52,10.6-.45,19.38,2.18,37.2,4.16,17.81,1.98,31.74,1.3,32.26-1.82s9.1-18.99,21.59-39.8c12.49-20.81,10.14-26.79,13.53-28.87,2.11-1.3,16.36-3.31,34.29-7.5,2.74-9,.97-18.82-1.76-24.77"/>
    <path class="cls-36" d="m377.28,232.15c-.32,0-.58-.26-.58-.59,0-.1.02-.19.07-.28,4.34-7.94.17-22.98-1.74-25.22-.21-.24-.19-.61.05-.83.24-.21.61-.19.83.05,0,0,.01.01.02.02,2.44,2.87,6.33,18.39,1.87,26.55-.1.19-.3.3-.51.3h0Z"/>
    <path class="cls-59" d="m260.84,247.88c-3.88,10.15-8.33,20.41-13.21,27.38-8,11.4-13.75,27.56-13.01,29.39.55,1.37,4.74,2.39,8.97,2.21,10.6-.45,19.38,2.18,37.2,4.16,17.81,1.98,31.74,1.3,32.26-1.82s9.49-21.72,21.98-42.53c3.76-6.27,6.17-11.19,7.81-15.07-16.03-.38-40.82-7.91-54.11-8.47-12.66-.54-22.98,2.61-27.89,4.75h0Z"/>
    <path class="cls-29" d="m382.85,230.89c-.32,0-.59-.26-.59-.58,0-.06,0-.12.03-.17,2.78-9.13.81-18.83-1.74-24.35-.12-.3.02-.64.32-.76.28-.11.6,0,.74.27,2.63,5.71,4.67,15.74,1.79,25.18-.07.25-.3.42-.56.42h0Zm-40.01,21.31h-.01c-8.67-.21-19.71-2.45-30.4-4.63-9.06-1.84-17.62-3.59-23.72-3.85-14.23-.61-24.74,3.44-27.63,4.7-.3.12-.64-.02-.77-.32-.12-.29.01-.63.3-.76,2.94-1.28,13.64-5.42,28.14-4.8,6.19.26,14.8,2.02,23.91,3.87,10.63,2.16,21.62,4.4,30.19,4.6.32,0,.58.27.58.59s-.27.58-.59.58h0Z"/>
    <path class="cls-36" d="m344.15,248.87h-.05c-7.08-.57-18.28-2.79-29.12-4.94-9.6-1.9-18.67-3.7-23.7-4.1-13.2-1.05-24.27,3.09-27.91,4.44-.38.14-.68.25-.89.33-.31.1-.64-.07-.73-.38-.09-.3.06-.62.36-.73.21-.07.49-.18.86-.32,3.7-1.38,14.95-5.59,28.41-4.51,5.1.41,14.2,2.21,23.84,4.12,10.8,2.14,21.97,4.36,28.99,4.92.32.03.56.31.53.63-.03.3-.28.53-.58.53h0Z"/>
    <path class="cls-2" d="m448.12,520.37l25-13.27,13.27,25-25,13.27-13.27-25Z"/>
    <path class="cls-11" d="m473.1,507.08l-25,13.27,7.89-16.05,23.79-12.63-6.68,15.4Z"/>
    <path class="cls-29" d="m473.1,507.08l6.68-15.4,12.73,23.99-6.14,16.42-13.27-25Z"/>
    <path class="cls-5" d="m468.06,528.76c-.15,0-.28-.08-.35-.21l-12.08-24.07c-.09-.2,0-.43.19-.52.19-.08.41-.01.5.17l11.9,23.71,24.1-12.53c.19-.1.42-.03.52.16,0,0,0,0,0,0,.1.19.02.43-.17.53l-24.45,12.71c-.06.03-.12.04-.18.04h0Z"/>
    <path class="cls-5" d="m461.37,545.74c-.22,0-.39-.17-.39-.39,0-.05,0-.1.03-.14l6.69-16.98c.08-.2.31-.3.51-.22s.3.31.22.51l-6.69,16.98c-.06.15-.2.25-.36.25Z"/>
    <path class="cls-5" d="m461.37,545.74c-.14,0-.28-.08-.34-.21l-13.27-25c-.1-.19-.03-.43.16-.53l25-13.27c.19-.1.43-.03.53.16l13.27,25c.1.19.03.43-.16.53l-25,13.27c-.06.03-.12.05-.18.05h0Zm-12.75-25.23l12.91,24.31,24.31-12.91-12.91-24.31-24.31,12.91Z"/>
    <path class="cls-19" d="m448.1,520.74c-.22,0-.39-.18-.39-.4,0-.06.01-.12.04-.17l7.88-16.05c.04-.07.1-.13.17-.17l23.79-12.63c.19-.1.43-.03.53.17.05.1.06.23.01.33l-6.68,15.4c-.04.08-.1.15-.18.19l-25,13.27c-.06.03-.12.05-.18.05h0Zm8.18-16.15l-7.3,14.85,23.82-12.64,6.18-14.26-22.7,12.05Z"/>
    <path class="cls-19" d="m486.38,532.47c-.14,0-.28-.08-.34-.21l-13.27-25c-.06-.1-.06-.23-.01-.34l6.68-15.4c.09-.2.32-.29.51-.2.08.04.15.1.19.17l12.73,23.99c.05.1.06.21.02.32l-6.13,16.42c-.05.14-.19.24-.34.25,0,0-.02,0-.02,0h0Zm-12.84-25.41l12.78,24.07,5.77-15.44-12.27-23.12-6.28,14.49h0Z"/>
    <path class="cls-29" d="m438.81,91.44s0-.09,0-.14c0,0,0-.02,0-.02,0-.05-.03-.1-.05-.15,0,0-.01-.02-.02-.02-.02-.04-.05-.08-.08-.11h0s-10.95-11.5-10.95-11.5c-.08-.08-.18-.13-.28-.15-.01,0-.02,0-.03,0-.03,0-.06-.02-.09-.02h-11.46c-.18-.12-.41-.12-.59,0h-11.75s-.05,0-.07.01c-.04,0-.07.01-.11.02-.03.01-.06.03-.09.05-.03.02-.07.04-.09.06-.01,0-.02.01-.03.02l-11.23,11.49h0s-.04.06-.06.09c-.01.02-.03.03-.04.05h0s-.02.06-.03.09c0,.02-.02.04-.02.06,0,.05-.01.1,0,.15,0,.02,0,.04.01.06,0,.04.01.07.03.1h0s.02.03.03.05c.01.03.03.06.05.08l23.27,30.29s.01,0,.01.01c.04.05.09.1.15.13.05.03.11.05.17.06.04,0,.08.02.12.02h0c.08,0,.15-.02.22-.05l.04-.02c.07-.04.12-.08.17-.14,0,0,0,0,0,0l22.72-30.28s.04-.06.05-.09c0,0,.01-.01.01-.02h0s.03-.09.04-.14c0-.01,0-.02,0-.03h0Zm-23.28,28.84l-12.68-28.34h25.1s-12.43,28.34-12.43,28.34Zm12.48-30.34l-10.87-9.49h9.63s1.24,9.49,1.24,9.49Zm-24.5.88l12.03-10.29,11.78,10.29h-23.81Zm-.77-.82l1.25-9.56h9.93s-11.18,9.56-11.18,9.56h0Zm-1.24.81h-7.9s9.12-9.34,9.12-9.34l-1.22,9.34h0Zm27.76,0l-1.22-9.35,8.91,9.35h-7.69Zm-27.63,1.12l11.45,25.61-19.67-25.61h8.22Zm16.37,25.52l11.19-25.51h7.95s-19.14,25.51-19.14,25.51h0Zm-189.3,81.7c-8.18,0-14.83-6.65-14.83-14.83s6.65-14.83,14.83-14.83,14.83,6.65,14.83,14.83-6.65,14.83-14.83,14.83Zm0-28.09c-7.32,0-13.27,5.95-13.27,13.27s5.95,13.27,13.27,13.27,13.27-5.95,13.27-13.27-5.95-13.27-13.27-13.27Z"/>
    <path class="cls-36" d="m228.02,556.05c-.29,0-.56-.17-.7-.43l-11.97-23.67c-.17-.34-.07-.75.23-.98l36.6-27.53c.34-.26.83-.19,1.09.16.17.23.21.54.08.81l-24.64,51.2c-.13.27-.4.44-.7.44h0Zm-10.97-24.22l10.96,21.68,22.56-46.89-33.52,25.21ZM615.05,61.74c-.38,0-.7-.27-.77-.64l-3.55-19.25c-.08-.42.2-.83.62-.91.19-.04.39,0,.56.11l24.35,15.17c.37.23.48.71.25,1.07-.11.18-.3.31-.51.35l-20.81,4.08s-.1.02-.15.02Zm-2.46-18.43l3.08,16.73,18.09-3.55-21.17-13.19Z"/>
    <path class="cls-29" d="m462.31,416.51c-9.04,0-16.39-7.35-16.39-16.39s7.35-16.39,16.39-16.39,16.39,7.35,16.39,16.39-7.35,16.39-16.39,16.39Zm0-31.21c-8.18,0-14.83,6.65-14.83,14.83s6.65,14.83,14.83,14.83,14.83-6.65,14.83-14.83-6.65-14.83-14.83-14.83Z"/>
    <path class="cls-31" d="m271.66,120.5l12.07-20.27-20.37-7.76-12.97,21.26,21.28,6.77Z"/>
    <path class="cls-2" d="m263.35,92.47l-12.97,21.26-10.56-16.02,12.76-18.68,10.77,13.44Z"/>
    <path class="cls-11" d="m283.73,100.23l-11.4-13.78-19.74-7.42,10.77,13.44,20.37,7.76Z"/>
    <path class="cls-5" d="m271.66,120.89c-.12,0-.23-.06-.31-.15l-11.04-14.16c-.1-.13-.11-.3-.03-.44l11.7-19.89c.11-.19.35-.25.53-.14.19.11.25.35.14.53l-11.57,19.66,10.88,13.95c.13.17.1.41-.07.55-.07.05-.15.08-.24.08h0Z"/>
    <path class="cls-5" d="m260.62,106.73c-.05,0-.1,0-.15-.03l-20.8-8.63c-.2-.09-.29-.32-.2-.51.08-.19.31-.28.5-.21l20.8,8.63c.2.08.29.31.21.51-.06.15-.2.24-.36.24h0Z"/>
    <path class="cls-5" d="m250.38,114.13c-.13,0-.25-.07-.33-.18l-10.56-16.02c-.09-.13-.09-.3,0-.43l12.76-18.68c.12-.18.36-.22.54-.1.03.02.06.05.08.08l10.77,13.44c.1.13.11.31.03.45l-12.97,21.26c-.07.11-.19.18-.33.19,0,0,0,0,0,0h0Zm-10.09-16.41l10.08,15.29,12.51-20.5-10.27-12.82-12.32,18.03Z"/>
    <path class="cls-19" d="m283.73,100.62s-.09,0-.14-.03l-20.37-7.76c-.06-.02-.12-.07-.17-.12l-10.77-13.44c-.13-.17-.11-.41.06-.55.11-.09.25-.11.38-.06l19.74,7.42c.06.02.12.06.16.12l11.4,13.78c.14.17.11.41-.05.55-.07.06-.16.09-.25.09Zm-20.14-8.48l18.89,7.2-10.39-12.56-18.31-6.88,9.81,12.25Z"/>
    <path class="cls-19" d="m271.66,120.89s-.08,0-.12-.02l-21.28-6.77c-.21-.07-.32-.29-.25-.5,0-.03.02-.05.04-.08l12.97-21.26c.1-.16.3-.23.47-.16l20.37,7.76c.2.08.3.3.23.5,0,.02-.02.04-.03.06l-12.07,20.27c-.07.12-.2.19-.34.19h0Zm-20.68-7.38l20.51,6.52,11.67-19.61-19.64-7.48-12.55,20.56h0Z"/>
  </g>
</svg>