<?xml version="1.0" encoding="UTF-8"?>
<svg id="hamburger-menu" xmlns="http://www.w3.org/2000/svg" viewBox="0 0 24 24">
  <defs>
    <style>
      .cls-1 {
        fill: #fff;
        fill-rule: evenodd;
      }
    </style>
  </defs>
  <path class="cls-1" d="m20.75,7c0,.41-.34.75-.75.75H4c-.41,0-.75-.34-.75-.75s.34-.75.75-.75h16c.41,0,.75.34.75.75Zm0,5c0,.41-.34.75-.75.75H4c-.41,0-.75-.34-.75-.75s.34-.75.75-.75h16c.41,0,.75.34.75.75Zm0,5c0,.41-.34.75-.75.75H4c-.41,0-.75-.34-.75-.75s.34-.75.75-.75h16c.41,0,.75.34.75.75Z"/>
</svg>