<?xml version="1.0" encoding="UTF-8"?>
<svg id="Layer_1" data-name="Layer 1" xmlns="http://www.w3.org/2000/svg" viewBox="0 0 28.35 28.35">
  <defs>
    <style>
      .cls-1 {
        fill: #e5e5e5;
      }

      .cls-2 {
        fill: none;
      }
    </style>
  </defs>
  <path class="cls-2" d="m14.17,2.68C7.83,2.68,2.68,7.83,2.68,14.17s5.14,11.49,11.49,11.49,11.49-5.14,11.49-11.49c0-6.34-5.15-11.48-11.49-11.49Zm4.57,13h0s-5.19,3.62-5.19,3.62c-.83.58-1.98.38-2.56-.46-.22-.31-.33-.68-.33-1.05v-7.24c0-1.02.82-1.84,1.84-1.84.38,0,.74.12,1.05.33l5.19,3.62c.83.58,1.04,1.73.46,2.56-.12.18-.28.33-.46.46h0Z"/>
  <path class="cls-1" d="m14.17.39C6.56.39.39,6.56.39,14.17s6.17,13.79,13.79,13.79,13.79-6.17,13.79-13.79c0-7.61-6.18-13.78-13.79-13.79Zm0,25.27c-6.34,0-11.49-5.14-11.49-11.49S7.83,2.68,14.17,2.68s11.49,5.14,11.49,11.49c0,6.34-5.15,11.48-11.49,11.49Z"/>
  <path class="cls-1" d="m18.74,12.67l-5.19-3.62c-.83-.58-1.98-.38-2.56.46-.22.31-.33.68-.33,1.05v7.24c0,1.01.82,1.84,1.84,1.84.38,0,.74-.12,1.05-.33l5.19-3.62h0c.83-.58,1.04-1.73.46-2.56-.12-.18-.28-.33-.46-.46h0Z"/>
</svg>