<?xml version="1.0" encoding="utf-8"?>
<!-- Generator: Adobe Illustrator 27.2.0, SVG Export Plug-In . SVG Version: 6.00 Build 0)  -->
<svg version="1.1" id="Layer_1" xmlns="http://www.w3.org/2000/svg" xmlns:xlink="http://www.w3.org/1999/xlink" x="0px" y="0px"
	 viewBox="0 0 256 256" style="enable-background:new 0 0 256 256;" xml:space="preserve">
<style type="text/css">
	.st0{fill:none;}
	.st1{fill:#FFFFFF;}
</style>
<rect y="0" class="st0" width="256" height="256"/>
<path class="st1" d="M128,24C70.6,24,24,70.6,24,128s46.6,104,104,104s104-46.6,104-104C231.9,70.6,185.4,24.1,128,24z M128,216
	c-48.6,0-88-39.4-88-88s39.4-88,88-88s88,39.4,88,88C215.9,176.6,176.6,215.9,128,216z M192,128c0,35.3-28.7,64-64,64
	s-64-28.7-64-64s28.7-64,64-64C163.3,64.1,191.9,92.7,192,128z"/>
</svg>
