<?xml version="1.0" encoding="UTF-8"?>
<svg id="developer-team" xmlns="http://www.w3.org/2000/svg" viewBox="0 0 798.44 649.25">
  <defs>
    <style>
      .cls-1 {
        fill: #0e538c;
      }

      .cls-2 {
        fill: #161616;
        opacity: .32;
      }

      .cls-2, .cls-3 {
        isolation: isolate;
      }

      .cls-4 {
        opacity: .43;
        stroke-width: .5px;
      }

      .cls-4, .cls-5 {
        stroke: #fff;
        stroke-miterlimit: 10;
      }

      .cls-4, .cls-6 {
        fill: #0b4870;
      }

      .cls-7 {
        fill: #cce9ff;
      }

      .cls-3, .cls-8 {
        fill: #ffbe55;
      }

      .cls-9 {
        fill: #fcd2b1;
      }

      .cls-10 {
        fill: #ffe3ca;
      }

      .cls-11 {
        fill: #d3d3d3;
      }

      .cls-12 {
        opacity: .1;
      }

      .cls-13 {
        fill: #f7f7f7;
      }

      .cls-5 {
        fill: none;
        stroke-width: 14.17px;
      }

      .cls-14 {
        fill: #2a94f4;
      }
    </style>
  </defs>
  <rect class="cls-4" x="52.92" y="133.01" width="737.88" height="504.92" rx="30.41" ry="30.41"/>
  <rect class="cls-5" x="12.68" y="96.41" width="778.13" height="544.52" rx="29.57" ry="29.57"/>
  <g>
    <g class="cls-12">
      <path class="cls-14" d="m135.56,440.73c-.41-2.17-1.06-4.28-1.93-6.27-.53-1.23-.35-2.64.53-3.69l3.58-4.4-5.39-6.57-4.98,2.64c-1.17.64-2.64.53-3.75-.23-1.82-1.23-3.75-2.29-5.8-3.11-1.23-.47-2.11-1.64-2.23-2.99l-.53-5.63-8.44-.82-1.64,5.45c-.41,1.29-1.47,2.23-2.81,2.46-2.17.41-4.28,1.06-6.27,1.93-1.23.53-2.64.35-3.69-.53l-4.4-3.58-6.57,5.39,2.64,4.98c.64,1.17.53,2.64-.23,3.75-1.23,1.82-2.29,3.75-3.11,5.8-.47,1.23-1.64,2.11-2.99,2.23l-5.63.53-.82,8.44,5.45,1.64c1.29.41,2.23,1.47,2.46,2.81.41,2.17,1.06,4.28,1.93,6.27.53,1.23.35,2.7-.53,3.69l-3.58,4.4,5.39,6.57,4.98-2.64c1.17-.64,2.64-.53,3.75.23,1.82,1.23,3.75,2.29,5.8,3.11,1.23.47,2.11,1.64,2.23,2.99l.53,5.63,8.44.82,1.64-5.45c.41-1.29,1.47-2.23,2.81-2.46,2.17-.41,4.28-1.06,6.27-1.93,1.23-.53,2.64-.35,3.69.53l4.4,3.58,6.57-5.39-2.64-4.98c-.64-1.17-.53-2.64.23-3.75,1.23-1.82,2.29-3.75,3.11-5.8.47-1.23,1.64-2.11,2.99-2.23l5.63-.53.82-8.44-5.45-1.64c-1.23-.41-2.23-1.52-2.46-2.81Zm-30.36,26.61c-11.84-1.17-20.52-11.72-19.34-23.56s11.72-20.52,23.56-19.34,20.52,11.72,19.34,23.56c-1.17,11.84-11.72,20.46-23.56,19.34Z"/>
      <path class="cls-14" d="m93,444.42c.76-7.91,7.8-13.66,15.71-12.9,7.91.76,13.66,7.8,12.9,15.71-.76,7.91-7.8,13.66-15.71,12.9s-13.66-7.8-12.9-15.71Z"/>
    </g>
    <ellipse class="cls-7" cx="397.99" cy="610.43" rx="265.25" ry="21.45"/>
    <path class="cls-3" d="m317.57,542.02c0,4.98,4.04,9.03,9.03,9.03h324.34c4.98,0,9.03-4.04,9.03-9.03v-279.26h-342.34v279.26h-.06Z"/>
    <path class="cls-7" d="m419.45,426.72c1.52,5.28,3.63,10.38,6.33,15.24,1.64,2.93,1.52,6.57-.35,9.38l-7.86,11.78,15.07,15.07,11.78-7.86c2.81-1.88,6.45-1.99,9.38-.35,4.81,2.7,9.91,4.81,15.24,6.33,3.22.94,5.69,3.58,6.39,6.92l2.76,13.89h21.28l2.81-13.95c.64-3.28,3.11-5.98,6.39-6.92,5.28-1.52,10.38-3.63,15.24-6.33,2.93-1.64,6.57-1.52,9.38.35l11.78,7.86,15.07-15.07-7.86-11.78c-1.88-2.81-1.99-6.45-.35-9.38,2.7-4.81,4.81-9.91,6.33-15.24.94-3.22,3.58-5.69,6.92-6.39l13.89-2.76v-21.28l-13.95-2.81c-3.28-.64-5.98-3.11-6.92-6.39-1.52-5.28-3.63-10.38-6.33-15.24-1.64-2.93-1.52-6.57.35-9.38l7.86-11.78-15.07-15.07-11.78,7.86c-2.81,1.88-6.45,1.99-9.38.35-4.81-2.7-9.91-4.81-15.24-6.33-3.22-.94-5.69-3.58-6.39-6.92l-2.76-13.89h-21.28l-2.81,13.95c-.64,3.28-3.11,5.98-6.39,6.92-5.28,1.52-10.38,3.63-15.24,6.33-2.93,1.64-6.57,1.52-9.38-.35l-11.78-7.85-15.07,15.07,7.86,11.78c1.88,2.81,1.99,6.45.35,9.38-2.7,4.81-4.81,9.91-6.33,15.24-.94,3.22-3.58,5.69-6.92,6.39l-13.89,2.76v21.28l13.95,2.81c3.34.64,6.04,3.11,6.92,6.39h0Zm69.29-73.92c29.84,0,54.05,24.21,54.05,54.05s-24.21,54.05-54.05,54.05-54.05-24.21-54.05-54.05,24.21-53.99,54.05-54.05Zm-171.17-135.12v27.02h342.34v-27.02c0-4.98-4.04-9.03-9.03-9.03h-324.34c-4.98,0-8.97,4.04-8.97,9.03Zm90.1,0h18v18.05h-18v-18.05Zm-36.05,0h18v18.05h-18v-18.05Zm-36.05,0h18v18.05h-18v-18.05Z"/>
    <path class="cls-8" d="m524.79,406.91c0,19.87-16.12,36.05-36.05,36.05s-36.05-16.12-36.05-36.05,16.12-36.05,36.05-36.05,36.05,16.12,36.05,36.05Zm-27.02-351.36c0-4.98-4.04-9.03-9.03-9.03H164.4c-4.98,0-9.03,4.04-9.03,9.03v27.02h342.34v-27.02h.06Zm-306.34,18h-18v-18h18v18Zm36.05,0h-18v-18h18v18Zm36.05,0h-18v-18h18v18Z"/>
    <path class="cls-3" d="m299.51,217.68c0-14.95,12.08-27.02,27.02-27.02h171.17v-90.1H155.37v279.26c0,4.98,4.04,9.03,9.03,9.03h135.12v-171.17Zm72.1-72.04h18v18h-18v-18h0Zm-36.05,0h18v18h-18v-18h0Zm-36.05,0h18v18h-18v-18h0Zm-35.99,216.19h-72.1v-18h72.1v18Zm0-36.05h-72.1v-18h72.1v18Zm0-35.99h-72.1v-18h72.1v18Zm0-36.05h-72.1v-18h72.1v18h0Zm0-36.05h-72.1v-18h72.1v18Zm0-54.05v-18h18v18h-18Z"/>
    <path class="cls-9" d="m370.03,470.86l.35-9.5,6.74,2.05,1.29,11.84s-6.45.41-8.38-4.4Z"/>
    <path class="cls-1" d="m370.62,470.92c1.58.64,4.22,1.23,7.5.47l-.41-2.7s1.88,1.11,2.34,3.58c.47,2.4.59,1.76,3.63,3.63,3.11,1.88,2.87,6.1,2.87,6.1l-22.98-.59s-.64-4.63,3.52-9.55c.82-1.06,2.29-1.47,3.52-.94h0Z"/>
    <path class="cls-8" d="m333.51,331.29s-2.99,11.67,1.23,18.99c4.22,7.33,11.84-8.91,11.84-8.91,0,0-1.35-15.59-13.07-10.08Z"/>
    <path class="cls-10" d="m331.4,275.95s-15.48,21.04-18.05,33.76c-2.64,12.72.18,40.51.18,40.51h6.33s3.34-35.46,5.45-40.51c2.11-5.16,15.83-28.96,15.83-28.96l-9.73-4.81h0Z"/>
    <path class="cls-11" d="m328.77,480.94h58.74v6.74h-58.74v-6.74Zm-12.54,46.54h63.13v6.74h-63.13v-6.74Zm-5.69,45.02h63.13v6.74h-63.13v-6.74Z"/>
    <path class="cls-11" d="m304.2,617.29h-7.03l51.82-243.74h3.93l-48.71,243.74Zm73.45,0h-7.03l41.09-250.6,3.46,1.64-37.52,248.96Z"/>
    <path class="cls-13" d="m363.41,617.29l37.81-243.33-52.23-.41-51.82,243.74h-8.09l52.64-250.6h69.99l-38.86,250.6h-10.61"/>
    <path class="cls-9" d="m339.67,470.86l.35-9.5,6.74,2.05,1.29,11.84c-.06,0-6.45.41-8.38-4.4Z"/>
    <path class="cls-10" d="m406.2,256.61s16.71-1.23,18.7-8.97c1.99-7.74,1.64-28.61,1.64-28.61h5.8s3.99,19.4,3.75,28.61c-.23,9.2-11.43,24.91-29.9,23.92-18.41-1,0-14.95,0-14.95h0Z"/>
    <path class="cls-14" d="m352.1,255.61s-9.67,1-13.66,5.22c-1.93,2.05-13.95,16.94-13.48,20.17l14.13,8.79,11.55-16,1.47-18.17Z"/>
    <path class="cls-6" d="m336.97,327.3s-4.16,12.31-.23,25.79,3.93,40.68,3.58,47.77-6.98,27.61-1.35,63.84h8.68s5.28-37.99,8.32-54.16c2.87-15.18,6.51-53.05,6.51-53.05,0,0,10.9,35.93,9.09,45.2-1.99,10.2-2.23,61.96-2.23,61.96h8.73s9.79-44.55,10.38-56.51c.64-11.96-.7-79.02-.7-79.02,0,0-29.08-19.75-50.76-1.82Z"/>
    <path class="cls-9" d="m366.75,232.22l-8.85,27.08,16,3.17,3.52-28.08-10.67-2.17Z"/>
    <path class="cls-14" d="m375.84,254.09s10.84,2.23,11.96,16.41c1.11,14.19,2.64,74.68,2.64,79.9-.35,2.4-42.5,10.43-55.04-1.76-3.17-3.11,7.21-55.75,5.74-69.58-1.52-13.78,6.68-31.3,34.7-24.97h0Z"/>
    <path class="cls-14" d="m388.44,282.46s4.34-9.91,17.76-10.9c0,0,3.22-9.2,0-14.95,0,0-24.33-4.98-33.59-3.11s15.83,28.96,15.83,28.96Z"/>
    <path class="cls-10" d="m432.29,224.25s1.82-9.73-1.41-15.24c-1.93-3.28-4.04-4.81-6.16-4.22-1.41.41-1.99,2.87-1.64,4.28.47,1.82,1.99,6.8,2.81,8.21,0,0-1.47,0-2.99-3.28-1.47-3.22-2.58,1.52-1.41,3.75,1.76,3.22,7.56,12.08,10.79,6.51h0Z"/>
    <path class="cls-1" d="m340.2,470.92c1.58.64,4.22,1.23,7.5.47l-.41-2.7s1.88,1.11,2.34,3.58c.47,2.4.59,1.76,3.63,3.63,3.11,1.88,2.87,6.1,2.87,6.1l-22.98-.59s-.64-4.63,3.52-9.55c.88-1.06,2.29-1.47,3.52-.94h0Z"/>
    <path class="cls-6" d="m389.44,228.18c-.41-3.4,6.98-5.69-7.15-15.65-7.21-5.04-19.75-2.81-23.62,4.81s-1.82,8.38-4.81,8.91c-2.99.59.18,24.15,18.23,23.86,18.11-.29,17.35-21.92,17.35-21.92h0Z"/>
    <path class="cls-8" d="m334.51,323.08h54.98c2.23,0,4.04,1.64,4.28,3.81.94,8.27,1.93,27.02-7.74,28.37-12.43,1.76-16.41-11.67-16.41-24.15l-36.11.18s-1.23-5.98,1-8.21Z"/>
    <path class="cls-10" d="m319.44,346.94s-1.06,12.49,2.99,15.89c4.04,3.46-7.15,4.98-9.91-1.35s1-14.54,1-14.54h5.92Z"/>
    <path class="cls-10" d="m318.39,348.58s3.75.64,5.16,4.69c.82,2.29,1.29,4.75,1.52,6.45.18,1.11-1.11,1.88-2.05,1.17s-1.82-1.76-1.7-3.58c.29-3.81-4.28-2.7-4.28-2.7,0,0-1.52-4.51,1.35-6.04h0Z"/>
    <path class="cls-13" d="m379.76,331.7h-2.87v-8.5c0-.47.41-.88.88-.88h1.17c.47,0,.88.41.88.88v8.5h-.06Zm4.28,0h-2.87v-5.63c0-.47.41-.88.88-.88h1.17c.47,0,.88.41.88.88v5.63h-.06Zm5.45,0h-3.99v-12.25c0-.64.53-1.17,1.17-1.17h1.64c.64,0,1.17.53,1.17,1.17v12.25Z"/>
    <path class="cls-2" d="m370.56,331.7h22.16v1.88h-22.16v-1.88Z"/>
    <path class="cls-8" d="m188.96,501.58c-1.06-2.7-2.34-5.33-3.99-7.74-1-1.47-1.06-3.4-.23-4.92l3.63-6.57-8.56-7.27-5.86,4.69c-1.41,1.11-3.28,1.35-4.92.59-2.64-1.17-5.45-2.11-8.27-2.64-1.76-.35-3.17-1.64-3.63-3.34l-2.05-7.15-11.2.94-.88,7.44c-.18,1.76-1.41,3.28-3.05,3.93-2.7,1.06-5.33,2.34-7.74,3.99-1.47,1-3.4,1.06-4.92.23l-6.57-3.63-7.27,8.56,4.69,5.86c1.11,1.41,1.35,3.28.59,4.92-1.17,2.64-2.11,5.45-2.64,8.27-.35,1.76-1.64,3.17-3.34,3.63l-7.21,2.05.94,11.2,7.44.88c1.76.18,3.28,1.41,3.93,3.05,1.06,2.7,2.34,5.33,3.99,7.74,1,1.47,1.06,3.4.23,4.92l-3.63,6.57,8.56,7.27,5.86-4.69c1.41-1.11,3.28-1.35,4.92-.59,2.64,1.17,5.45,2.11,8.27,2.64,1.76.35,3.17,1.64,3.63,3.34l2.05,7.21,11.2-.94.88-7.44c.18-1.76,1.41-3.28,3.05-3.93,2.7-1.06,5.33-2.34,7.74-3.99,1.47-1,3.4-1.06,4.92-.23l6.57,3.63,7.27-8.56-4.69-5.86c-1.11-1.41-1.35-3.28-.59-4.92,1.17-2.64,2.11-5.45,2.64-8.27.35-1.76,1.64-3.17,3.34-3.63l7.21-2.05-.94-11.2-7.44-.88c-1.76-.23-3.28-1.47-3.93-3.11h0Zm-33.18,41.91c-15.71,1.29-29.49-10.38-30.83-26.09-1.29-15.71,10.38-29.49,26.09-30.83,15.71-1.29,29.49,10.38,30.83,26.09,1.29,15.71-10.38,29.49-26.09,30.83Z"/>
    <path class="cls-8" d="m134.44,516.64c-.88-10.49,6.92-19.7,17.35-20.58,10.49-.88,19.7,6.92,20.58,17.35.88,10.49-6.92,19.7-17.35,20.58-10.49.88-19.7-6.86-20.58-17.35h0Z"/>
    <path class="cls-7" d="m280.23,424.43c-2.81-2.52-5.86-4.75-9.2-6.57-2.05-1.11-3.22-3.28-3.17-5.57l.29-9.73-14.19-3.28-3.99,8.85c-.94,2.11-2.99,3.52-5.33,3.63-3.75.18-7.5.82-11.14,1.88-2.23.64-4.63,0-6.21-1.7l-6.62-7.09-12.37,7.68,3.4,9.14c.82,2.17.35,4.63-1.23,6.33-2.52,2.81-4.75,5.86-6.57,9.2-1.11,2.05-3.28,3.22-5.57,3.17l-9.73-.29-3.28,14.19,8.85,3.99c2.11.94,3.52,2.99,3.63,5.33.18,3.75.82,7.5,1.82,11.14.64,2.23,0,4.63-1.7,6.21l-7.09,6.62,7.68,12.37,9.14-3.46c2.17-.82,4.57-.35,6.33,1.23,2.81,2.52,5.86,4.75,9.2,6.57,2.05,1.11,3.28,3.28,3.17,5.57l-.29,9.73,14.19,3.28,3.99-8.85c.94-2.11,2.99-3.52,5.33-3.63,3.75-.18,7.5-.82,11.14-1.82,2.23-.64,4.63,0,6.21,1.7l6.62,7.09,12.37-7.68-3.4-9.14c-.82-2.17-.35-4.63,1.23-6.33,2.52-2.81,4.75-5.86,6.57-9.2,1.11-2.05,3.28-3.22,5.57-3.17l9.73.29,3.28-14.19-8.85-3.99c-2.11-.94-3.52-2.99-3.63-5.33-.18-3.75-.82-7.5-1.82-11.14-.64-2.23,0-4.63,1.7-6.21l7.09-6.62-7.68-12.37-9.14,3.4c-2.17.76-4.57.29-6.33-1.23Zm-13.48,68.06c-17.35,10.84-40.21,5.51-51.06-11.84-10.84-17.35-5.51-40.21,11.84-51.06,17.35-10.84,40.21-5.51,51.06,11.84,10.79,17.41,5.51,40.21-11.84,51.06Z"/>
    <path class="cls-7" d="m226.18,474.09c-7.21-11.55-3.69-26.79,7.91-34,11.61-7.21,26.79-3.69,34,7.91,7.21,11.55,3.69,26.79-7.91,34-11.55,7.21-26.79,3.69-34-7.91Z"/>
    <path class="cls-8" d="m690.39,151.56c-2.29,2.93-4.16,6.1-5.69,9.5-.94,2.05-2.93,3.46-5.22,3.58l-9.55.47-2.11,14.13,8.97,3.22c2.11.76,3.63,2.7,3.93,4.92.47,3.69,1.35,7.27,2.7,10.73.82,2.11.35,4.51-1.17,6.21l-6.39,7.03,8.5,11.49,8.68-4.04c2.05-.94,4.46-.7,6.27.7,2.93,2.29,6.1,4.16,9.5,5.69,2.05.94,3.46,2.93,3.58,5.22l.47,9.55,14.13,2.11,3.22-8.97c.76-2.11,2.7-3.63,4.92-3.93,3.69-.47,7.27-1.35,10.73-2.7,2.11-.82,4.51-.35,6.21,1.17l7.03,6.45,11.49-8.5-4.04-8.68c-.94-2.05-.7-4.46.7-6.27,2.29-2.93,4.16-6.1,5.69-9.5.94-2.05,2.93-3.46,5.22-3.58l9.55-.47,2.11-14.13-8.97-3.22c-2.11-.76-3.63-2.7-3.93-4.92-.47-3.69-1.35-7.27-2.7-10.73-.82-2.11-.35-4.51,1.17-6.21l6.45-7.03-8.5-11.49-8.68,4.04c-2.05.94-4.46.7-6.27-.7-2.93-2.29-6.1-4.16-9.5-5.69-2.05-.94-3.46-2.93-3.58-5.22l-.47-9.55-14.13-2.11-3.22,8.97c-.76,2.11-2.7,3.63-4.92,3.93-3.69.47-7.27,1.35-10.73,2.7-2.11.82-4.51.35-6.21-1.17l-7.03-6.45-11.49,8.5,4.04,8.68c.88,2.05.64,4.46-.76,6.27h0Zm67.59,7.91c11.9,16.12,8.5,38.92-7.62,50.82s-38.92,8.5-50.82-7.62c-11.9-16.12-8.5-38.92,7.62-50.82,16.18-11.9,38.92-8.5,50.82,7.62h0Z"/>
    <path class="cls-8" d="m743.15,200.57c-10.79,7.97-25.91,5.69-33.88-5.1-7.97-10.79-5.69-25.91,5.1-33.88,10.79-7.97,25.91-5.69,33.88,5.1,7.97,10.73,5.69,25.91-5.1,33.88h0Z"/>
    <path class="cls-7" d="m545.72,104.2c-.88,4.75-1.17,9.55-1,14.36.12,2.93-1.35,5.74-3.93,7.21l-10.73,6.16,5.92,17.59,12.31-1.58c2.93-.35,5.8.94,7.44,3.34,2.76,3.99,5.92,7.62,9.44,10.84,2.17,1.99,3.05,5.04,2.29,7.85l-3.22,11.9,16.59,8.27,7.62-9.79c1.82-2.34,4.75-3.46,7.62-2.93,4.75.88,9.55,1.23,14.36,1,2.93-.12,5.74,1.35,7.21,3.93l6.16,10.73,17.59-5.92-1.58-12.31c-.35-2.93.94-5.8,3.34-7.44,3.99-2.7,7.62-5.92,10.84-9.44,1.99-2.17,5.04-3.05,7.86-2.29l11.96,3.22,8.27-16.65-9.85-7.62c-2.34-1.82-3.46-4.75-2.93-7.62.88-4.75,1.23-9.55,1-14.36-.12-2.93,1.41-5.74,3.93-7.21l10.73-6.16-5.92-17.59-12.31,1.58c-2.93.35-5.8-.94-7.44-3.34-2.7-3.99-5.92-7.62-9.44-10.84-2.17-1.99-3.05-5.04-2.29-7.85l3.22-11.96-16.53-8.27-7.62,9.79c-1.82,2.34-4.75,3.46-7.62,2.93-4.75-.88-9.55-1.23-14.36-1-2.93.12-5.74-1.35-7.21-3.93l-6.16-10.73-17.59,5.92,1.58,12.31c.35,2.93-.94,5.8-3.34,7.44-3.99,2.7-7.62,5.92-10.84,9.44-1.99,2.17-5.04,3.05-7.86,2.29l-11.96-3.22-8.27,16.65,9.79,7.62c2.4,1.82,3.52,4.75,2.93,7.68Zm82.83-30.89c23.33,11.61,32.83,39.92,21.28,63.25-11.61,23.33-39.92,32.83-63.25,21.28-23.33-11.61-32.83-39.92-21.28-63.25,11.61-23.33,39.92-32.83,63.25-21.28h0Z"/>
    <path class="cls-7" d="m635.7,129.58c-7.74,15.53-26.61,21.92-42.15,14.19-15.53-7.74-21.92-26.61-14.19-42.15,7.74-15.53,26.61-21.92,42.15-14.19,15.59,7.68,21.92,26.55,14.19,42.15Z"/>
  </g>
</svg>