<?xml version="1.0" encoding="UTF-8"?>
<svg id="Layer_2" data-name="Layer 2" xmlns="http://www.w3.org/2000/svg" viewBox="0 0 792.3 644.28">
  <defs>
    <style>
      .cls-1 {
        fill: #ff957e;
      }

      .cls-2 {
        fill: #0e538c;
      }

      .cls-3 {
        stroke: #fff;
        stroke-width: .5px;
      }

      .cls-3, .cls-4 {
        stroke-miterlimit: 10;
      }

      .cls-3, .cls-5 {
        fill: #0b4870;
      }

      .cls-6 {
        fill: #fff;
      }

      .cls-7 {
        fill: #fcbaa2;
      }

      .cls-8, .cls-9 {
        fill: #cce9ff;
      }

      .cls-10 {
        fill: #fcd2b1;
      }

      .cls-11 {
        fill: #ffe3ca;
      }

      .cls-12 {
        fill: #ffbe55;
      }

      .cls-13 {
        fill: #ffb750;
      }

      .cls-14 {
        fill: #eb4747;
      }

      .cls-15 {
        fill: #d3d3d3;
      }

      .cls-16 {
        fill: #e9d6b8;
      }

      .cls-17 {
        fill: #f7f7f7;
      }

      .cls-18 {
        fill: #2a94f4;
      }

      .cls-4 {
        fill: none;
        stroke: #000;
        stroke-width: 14.17px;
      }

      .cls-19 {
        fill: #f2f0f0;
      }

      .cls-9 {
        isolation: isolate;
      }

      .cls-20 {
        fill: #f2f2f2;
      }
    </style>
  </defs>
  <g id="developer-team">
    <g>
      <rect class="cls-4" x="7.09" y="92.67" width="778.13" height="544.52" rx="29.57" ry="29.57"/>
      <g>
        <path class="cls-9" d="m138.26,518.45c1.36,3.37,2.87,6.74,4.52,9.96,24.51,48.09,74.25,78.4,127.28,83.85,42.43,4.3,83.71-9.53,119.18-32.11,35.4-22.5,63.78-54.18,103.13-70.66,55.47-23.15,117.32-41.42,160.82-90.44,49.45-55.69,68.51-140.11,45.22-211.35-22.65-69.52-97.83-92.02-156.23-122.62C437.19,29.96,291.78-6.66,182.48,58.06c-130.94,77.47-107.14,253.34-65.65,375.39,9.46,27.81,10.61,57.76,21.43,85h0Z"/>
        <path class="cls-12" d="m205.06,188.92l-.21-1.36h-1.36c-26.52,0-35.12-8.53-35.19-8.6l-1.15-1.29-1.15,1.29c-.07.07-8.6,8.6-35.19,8.6h-1.36l-.22,1.36c-.07.43-5.66,43.14,37.2,65.07l.72.36.72-.36c43-21.93,37.2-64.64,37.2-65.07h0Zm-6.45,26.45c-5.3,15.34-15.91,27.23-31.53,35.4-15.62-8.17-26.23-20.07-31.53-35.4-3.87-11.25-3.66-21.07-3.37-24.58,22.07-.29,31.89-6.16,34.9-8.6,3.01,2.37,12.83,8.31,34.9,8.6.29,3.58.5,13.33-3.37,24.58Zm48.52-81.34l-1.51-3.94c-1.36-.14-2.65-.5-3.94-.93l-3.08,2.87-8.89-6.38,1.72-3.87c-.86-1.08-1.58-2.22-2.15-3.44l-4.23-.14-1.79-10.82,3.94-1.51c.14-1.36.5-2.65.93-3.94l-2.87-3.08,6.38-8.96,3.87,1.72c1.08-.86,2.22-1.58,3.44-2.15l.14-4.23,10.82-1.79,1.51,3.94c1.36.14,2.65.5,3.94.93l3.08-2.87,8.89,6.38-1.72,3.87c.86,1.08,1.58,2.22,2.15,3.44l4.23.14,1.79,10.82-3.94,1.51c-.21,1.36-.5,2.65-.93,3.94l2.87,3.08-6.38,8.96-3.87-1.72c-1.08.86-2.22,1.58-3.44,2.15l-.14,4.23-10.82,1.79Zm-6.16-8.31l.86.36c1.58.65,3.3,1,5.02,1.15l.93.07,1.29,3.37,5.95-1,.14-3.58.86-.36c1.58-.72,3.01-1.65,4.37-2.72l.72-.57,3.3,1.51,3.51-4.87-2.51-2.65.36-.86c.65-1.58,1-3.3,1.15-5.02l.07-.93,3.37-1.29-1-5.95-3.58-.14-.36-.86c-.72-1.58-1.65-3.01-2.72-4.37l-.57-.72,1.51-3.3-4.87-3.51-2.65,2.44-.86-.36c-1.58-.65-3.3-1-5.02-1.15l-.93-.07-1.29-3.37-5.95,1-.14,3.58-.86.36c-1.58.72-3.01,1.65-4.37,2.72l-.72.57-3.3-1.51-3.51,4.87,2.51,2.65-.36.86c-.65,1.58-1,3.3-1.15,5.02l-.07.93-3.37,1.29,1,5.95,3.58.14.36.86c.72,1.58,1.65,3.01,2.72,4.37l.57.72-1.51,3.3,4.87,3.51,2.65-2.44Zm7.45-5.02c-2.44,0-4.87-.79-6.88-2.22-5.38-3.8-6.59-11.25-2.8-16.63,3.8-5.38,11.25-6.59,16.63-2.8,2.58,1.86,4.3,4.59,4.87,7.74.5,3.15-.21,6.31-2.01,8.89-1.86,2.58-4.59,4.3-7.74,4.87-.79.07-1.43.14-2.08.14h0Zm0-20.86c-2.8,0-5.52,1.29-7.24,3.73-1.36,1.94-1.94,4.3-1.51,6.67s1.65,4.37,3.58,5.73,4.3,1.94,6.67,1.51c2.37-.43,4.37-1.65,5.73-3.58s1.94-4.3,1.51-6.67-1.65-4.37-3.58-5.73c-1.58-1.08-3.37-1.65-5.16-1.65h0Zm342.28,151l-3.37-8.82c-3.58-.43-7.17-1.22-10.54-2.44l-6.88,6.45-18.63-13.26,3.87-8.6c-2.22-2.8-4.16-5.88-5.73-9.17l-9.39-.29-3.8-22.58,8.82-3.37c.43-3.58,1.22-7.17,2.44-10.54l-6.45-6.88,13.26-18.63,8.6,3.87c2.8-2.22,5.88-4.16,9.17-5.73l.29-9.39,22.58-3.8,3.37,8.82c3.58.43,7.17,1.22,10.54,2.44l6.88-6.45,18.63,13.26-3.87,8.6c2.22,2.8,4.16,5.88,5.73,9.17l9.39.29,3.8,22.58-8.82,3.37c-.43,3.58-1.22,7.17-2.44,10.54l6.45,6.88-13.26,18.63-8.6-3.87c-2.8,2.22-5.88,4.16-9.17,5.73l-.29,9.39-22.58,3.8Zm-14.91-15.84l1.15.43c3.8,1.43,7.81,2.37,11.9,2.72l1.29.14,3.08,8.03,16.05-2.72.29-8.6,1.15-.5c3.73-1.65,7.24-3.87,10.39-6.52l.93-.79,7.88,3.51,9.46-13.26-5.88-6.31.43-1.15c1.43-3.8,2.37-7.81,2.72-11.9l.07-1.29,8.03-3.08-2.72-16.05-8.6-.29-.5-1.15c-1.65-3.73-3.87-7.24-6.52-10.39l-.79-.93,3.51-7.88-13.26-9.46-6.31,5.88-1.15-.43c-3.8-1.43-7.81-2.37-11.9-2.72l-1.29-.07-3.08-8.03-16.05,2.72-.29,8.6-1.15.5c-3.73,1.65-7.24,3.87-10.39,6.52l-.93.79-7.88-3.51-9.32,13.26,5.88,6.31-.43,1.15c-1.43,3.8-2.37,7.81-2.72,11.9l-.07,1.29-8.03,3.08,2.72,16.05,8.6.29.5,1.15c1.65,3.73,3.87,7.24,6.52,10.39l.79.93-3.51,7.88,13.26,9.46,6.16-5.95h0Zm16.91-14.76c-5.23,0-10.46-1.58-15.05-4.8-11.68-8.31-14.41-24.58-6.09-36.26,8.31-11.68,24.58-14.41,36.26-6.09,11.68,8.31,14.41,24.58,6.09,36.26-5.09,7.1-13.12,10.89-21.21,10.89Zm.07-47.95c-6.88,0-13.69,3.23-17.92,9.25-3.44,4.8-4.73,10.61-3.8,16.41,1,5.81,4.16,10.82,8.96,14.26,9.89,7.02,23.65,4.73,30.67-5.16,3.37-4.8,4.73-10.61,3.8-16.41-1-5.81-4.16-10.82-8.96-14.26-3.94-2.8-8.39-4.09-12.76-4.09h0Zm-351.03,239.8c-3.44-9.68-7.38-20.57-3.01-31.75,5.88-15.05-6.59-22.79-17.56-29.74-9.46-5.88-18.35-11.47-15.34-20.71,3.3-10.03,3.08-17.77-.65-22.86-3.15-4.3-8.74-6.59-16.2-6.52-5.95.07-11.25-7.24-16.91-14.91-6.67-9.03-13.47-18.35-22.07-16.27-1.51.36-2.72,1.22-3.44,2.58-3.01,5.66,1.72,19.14,6.81,33.47,5.45,15.48,11.68,32.97,7.6,40.42-4.44,8.17,3.58,15.62,12.11,23.58,9.03,8.39,19.28,17.92,16.56,29.89-2.58,11.18-3.15,15.34-1.58,17.77,1.22,1.94,3.73,2.37,7.53,3.08,2.58.5,5.88,1.08,9.89,2.37,17.27,5.38,22.29,16.56,22.36,16.7l.21.5.5-.07c8.31-1.29,13.19-3.66,15.48-7.45.14-.21.21-.43.36-.65,2.44-5.09.07-11.75-2.65-19.42h0Z"/>
        <path class="cls-18" d="m197.6,390.74c2.87,4.44,4.95,8.31,4.73,13.76-.14,5.09-.93,10.11-1.36,15.12-.07,1.08-.14,2.08-.21,3.08-1.43-1.22-2.8-2.44-4.23-3.66-.65-.07-1.29-.07-2.01-.07,2.01,1.65,4.09,3.44,6.09,5.23-.21,3.51-.29,7.02-.29,10.54,0,2.08-.07,4.3.07,6.38-1.86-1.15-3.8-2.29-5.59-3.44-5.59-3.44-10.82-6.67-14.84-8.39-3.08-1.29-6.52-2.44-9.82-3.51-8.6-2.8-17.42-5.66-20.35-11.75-1.51-3.15-1.36-6.95.43-11.54,4.52-11.83.29-13.83-6.81-17.27-5.16-2.51-12.18-5.88-19.21-14.41-3.08-3.73-5.81-6.95-8.24-9.75-7.24-8.53-11.25-13.19-10.75-15.91.14-.65.5-1.22,1.22-1.79.36-.29.79-.57,1.36-.86,2.72-1.5,5.45-.36,8.53.93,4.16,1.72,9.25,3.94,16.34.29,5.59-2.87,11.83-5.52,15.55-3.37,2.58,1.43,4.09,5.16,4.59,11.25.14,1.94.79,3.3,1.86,4.09,1.58,1.15,4.01,1,6.81.43,1.94,2.65,4.44,3.94,7.45,5.02,4.23,1.5,7.38,2.87,10.46,6.31,6.59,7.45,12.97,15.05,18.2,23.29h0Z"/>
        <path class="cls-6" d="m174.74,402.56c-4.3-2.87-8.03-9.82-11.61-16.56-4.87-9.17-9.96-18.63-16.91-18.42-11.18.29-21.14-12.9-21.29-12.97l-.93.72c.43.57,10.46,13.76,22.22,13.47,6.24-.14,11.18,8.96,15.84,17.85,3.66,6.81,7.45,13.9,11.97,16.99,2.72,1.79,7.74,5.45,13.69,10.11v-1.5c-5.23-4.37-9.89-7.67-12.97-9.68h0Z"/>
        <path class="cls-12" d="m552.43,491.36s6.45-16.05-5.3-38.84c-11.83-22.79-21.36-19.28,7.1-36.84,28.45-17.56.14-72.74,24.37-79.77,24.22-7.02,45.22-96.39,63.64-85s-6.16,55.18,7.02,68.37c13.12,13.19,14.91,29.89-12.26,43.43-27.16,13.55,19.28,65.29-17.56,81.06-36.84,15.77-26.23,77.62-67.01,47.59h0Z"/>
        <path class="cls-6" d="m563.68,508.34c-.07-.21-4.01-20.71,8.53-47.23,12.76-27.02,18.85-56.55,16.34-79.05-1.36-12.18,6.45-16.91,13.98-21.5,7.45-4.52,15.12-9.25,14.69-21.21-.36-10.82,4.23-36.19,4.37-37.27l1.65.29c-.07.29-4.73,26.3-4.37,36.91.43,12.97-7.67,17.92-15.48,22.65-7.45,4.52-14.41,8.82-13.19,19.92,2.58,22.72-3.58,52.6-16.48,79.91-12.26,26.02-8.46,46.01-8.39,46.23l-1.65.36h0Z"/>
        <path class="cls-2" d="m661.51,375.19c10.25-4.87,21.14-2.65,15.48,7.6-5.66,10.25-14.12,11.04-12.54,19.14,1.58,8.1,5.73,16.91-7.6,22.07-13.33,5.09-19.57,4.23-27.66,19.21-8.17,14.98-10.97,26.09-24.94,22.5-13.98-3.66-2.37-22.07,4.87-29.81,0,0,9.82-8.31,9.68-23.29-.14-14.98-6.31-25.01,13.04-24.01,19.35.86,22.72-10.11,29.67-13.4h0Z"/>
        <path class="cls-6" d="m602.02,476.17c.57-1.94,14.05-48.3,25.08-53.32,11.25-5.16,17.34-18.63,20-26.16,3.44-9.82,18.13-11.75,18.71-11.83l.21,1.65c-.14,0-14.26,1.86-17.34,10.68-3.3,9.53-9.6,22-20.86,27.16-10.32,4.73-24.01,51.82-24.15,52.32l-1.65-.5Zm-354.97-37.34c-22.07-5.52-22.36-17.42-22.65-28.88-.21-9.39-.43-18.28-12.4-23.72-15.84-7.24-16.2-20.64-16.56-32.47-.29-8.82-.5-17.13-7.1-21.64-15.84-10.82-29.24-37.05-29.38-37.34l1.22-.65c.14.29,13.33,26.16,28.95,36.84,7.17,4.87,7.45,13.55,7.67,22.72.36,11.97.72,24.44,15.77,31.25,12.69,5.81,12.97,15.55,13.19,24.94.29,11.47.57,22.36,21.64,27.59l-.36,1.36h0Z"/>
        <path class="cls-17" d="m217.31,428.22h362.57V166.49c0-3.73-3.01-6.81-6.81-6.81H224.12c-3.73,0-6.81,3.01-6.81,6.81v261.73h0Z"/>
        <path class="cls-3" d="m566.38,379.42H230.12v-206.62h336.26v206.62Z"/>
        <path class="cls-20" d="m579.88,389.45H217.46l-39.7,148.28h441.76l-39.63-148.28Z"/>
        <path class="cls-3" d="m231.14,415.46h22.29c.93,0,1.65.72,1.43,1.5l-2.15,9.68c-.14.57-.72,1-1.43,1h-22.65c-.93,0-1.65-.72-1.43-1.58l2.51-9.68c.14-.5.72-.93,1.43-.93Zm32.47,0h16.84l-2.22,12.26h-17.2l2.58-12.26Zm25.23,0h16.84l-1.72,12.26h-17.2l2.08-12.26Zm25.3,0h16.84l-1.29,12.26h-17.2l1.65-12.26Zm25.23,0h16.84l-.79,12.26h-17.2l1.15-12.26Zm25.23,0h16.84l-.29,12.26h-17.2l.65-12.26Zm202.1,0h-25.3l2.72,12.26h25.73l-3.15-12.26Zm-33.68,0h-16.84l2.22,12.26h17.2l-2.58-12.26Zm-25.23,0h-16.84l1.72,12.26h17.2l-2.08-12.26Zm-25.3,0h-16.84l1.29,12.26h17.2l-1.65-12.26Zm-25.23,0h-16.84l.79,12.26h17.2l-1.15-12.26Zm-25.23,0h-16.84l.29,12.26h17.2l-.65-12.26Zm-42.14,0h16.84l.21,12.26h-17.06v-12.26Zm-166.12,21.36h35.12l-2.01,12.61h-35.83l2.72-12.61Zm348.37,0h-43.43l2.44,12.61h44.36l-3.37-12.61Zm-52.17,0h-17.34l1.94,12.61h17.77l-2.37-12.61Zm-26.09,0h-17.34l1.43,12.61h17.77l-1.86-12.61Zm-26.09,0h-17.34l1,12.61h17.7l-1.36-12.61Zm-26.09,0h-17.34l.5,12.61h17.7l-.86-12.61Zm-223.24,22.43h35.98l-2.65,12.54h-36.62l3.3-12.54Zm44.94,0h17.99l-2.08,12.54h-18.35l2.44-12.54Zm27.02,0h134.81l.5,12.54h-137.31l2.01-12.54Zm143.84,0h17.99l1,12.54h-18.35l-.65-12.54Zm26.95,0h17.99l1.5,12.54h-18.35l-1.15-12.54Zm27.02,0h17.99l1.94,12.54h-18.28l-1.65-12.54Zm26.95,0h17.99l2.44,12.54h-18.28l-2.15-12.54Zm26.95,0h35.98l3.3,12.54h-36.62l-2.65-12.54Zm-126.42-22.43h-17.27v12.61h17.56l-.29-12.61Zm-26.09,0h-17.42l-.5,12.61h17.77l.14-12.61Zm-26.09,0h-17.42l-1,12.61h17.77l.64-12.61Zm-26.09,0h-17.42l-1.51,12.61h17.77l1.15-12.61Zm-26.09,0h-17.42l-2.01,12.61h17.77l1.65-12.61Zm-26.09,0h-17.42l-2.44,12.61h17.7l2.15-12.61Zm-53.32-29.03l2.87-10.89h8.17l-2.65,10.89h-8.39Zm19.21-10.89h16.34l-2.22,10.89h-16.7l2.58-10.89Zm24.58,0h16.34l-1.86,10.89h-16.63l2.15-10.89Zm24.51,0h16.34l-1.43,10.89h-16.63l1.72-10.89Zm24.51,0h16.34l-1,10.89h-16.63l1.29-10.89Zm24.51,0h16.34l-.57,10.89h-16.63l.86-10.89Zm24.51,0h16.34l-.14,10.89h-16.63l.43-10.89Zm24.51,0h16.34l.29,10.89h-16.63v-10.89Zm24.51,0h16.34l.72,10.89h-16.63l-.43-10.89Zm24.51,0h16.41l1.08,10.89h-16.63l-.86-10.89Zm24.58,0h16.34l1.58,10.89h-16.63l-1.29-10.89Zm24.51,0h16.34l2.01,10.89h-16.63l-1.72-10.89Zm24.51,0h16.34l2.44,10.89h-16.63l-2.15-10.89Zm24.51,0h16.34l2.87,10.89h-16.63l-2.58-10.89Z"/>
        <path class="cls-15" d="m607.97,549.27H189.29c-6.38,0-11.54-5.16-11.54-11.54h441.76c0,6.38-5.16,11.54-11.54,11.54h0Zm-157.95-59.48c-.43-2.58-2.72-4.52-5.3-4.52h-92.09c-2.65,0-4.87,1.94-5.3,4.52l-5.73,34.76c-.57,3.3,2.01,6.31,5.3,6.31h103.49c3.37,0,5.88-3.01,5.3-6.31l-5.66-34.76h0Z"/>
        <path class="cls-17" d="m252.79,190.36h37.48v3.87h-37.48v-3.87Zm48.02,28.88h27.02v3.87h-27.02v-3.87Zm31.25,0h17.92v3.87h-17.92v-3.87Zm-78.83,72.67h17.92v3.87h-17.92v-3.87Zm100.33-72.67h43.36v3.87h-43.36v-3.87Zm-100.33,58.12h27.88v3.87h-27.88v-3.87Zm38.84,28.95h16.99v3.87h-16.99v-3.87Zm-38.84,0h33.68v3.87h-33.68v-3.87Zm0,14.48h18.56v3.87h-18.56v-3.87Zm44.36-130.43h26.59v3.87h-26.59v-3.87Zm0,43.36h26.59v3.87h-26.59v-3.87Zm-13.33,14.41h11.4v3.87h-11.4v-3.87Zm-11.32,14.69h25.51v3.87h-25.51v-3.87Zm29.38,0h35.26v3.87h-35.26v-3.87Zm-49.09-14.55h26.59v3.87h-26.59v-3.87Zm0,14.55h15.77v3.87h-15.77v-3.87Zm47.8-14.55h14.91v3.87h-14.91v-3.87Zm-47.3,86.93h14.91v3.87h-14.91v-3.87Zm-.57-115.96h26.59v3.87h-26.59v-3.87Zm23.51,72.67h26.59v3.87h-26.59v-3.87Zm.36,28.88h26.59v3.87h-26.59v-3.87Zm47.23,0h26.59v3.87h-26.59v-3.87Zm-71.09-87.08h37.91v3.87h-37.91v-3.87Zm177.66-43.36h26.59v3.87h-26.59v-3.87Zm-94.74,144.84h26.59v3.87h-26.59v-3.87Zm129.57-144.84h17.77v3.87h-17.77v-3.87Zm60.27,14.48h17.77v3.87h-17.77v-3.87Zm-194.58-14.48h33.9v3.87h-33.9v-3.87Zm132.01,14.48h33.9v3.87h-33.9v-3.87Zm-41.57,14.41h33.9v3.87h-33.9v-3.87Zm-44.08,14.48h33.9v3.87h-33.9v-3.87Zm82.2-14.48h24.08v3.87h-24.08v-3.87Zm-69.66-28.88h33.9v3.87h-33.9v-3.87Zm-38.63,43.36h19.85v3.87h-19.85v-3.87Zm-15.55,58.41h19.85v3.87h-19.85v-3.87Zm35.4-101.77h12.4v3.87h-12.4v-3.87Zm-40.13,43.36h12.4v3.87h-12.4v-3.87Zm174.08-28.88h12.4v3.87h-12.4v-3.87Zm-252.63,0h19.42v3.87h-19.42v-3.87Zm51.82,72.6h15.34v3.87h-15.34v-3.87Zm-27.59-72.6h6.24v3.87h-6.24v-3.87Zm128.57,0h51.82v3.87h-51.82v-3.87Zm-49.67,115.96h51.82v3.87h-51.82v-3.87Zm-68.08-115.96h6.38v3.87h-6.38v-3.87Zm96.03,0h16.91v3.87h-16.91v-3.87Zm16.99,14.41h16.91v3.87h-16.91v-3.87Zm-87.15,115.96h16.91v3.87h-16.91v-3.87Zm29.67-130.36h36.05v3.87h-36.05v-3.87Zm-33.61,87.29h21.07v3.87h-21.07v-3.87Zm-1.29,28.67h10.54v3.87h-10.54v-3.87Zm17.34-115.96h12.4v3.87h-12.4v-3.87Zm-41.71,14.41h12.4v3.87h-12.4v-3.87Zm2.44,58.19h12.4v3.87h-12.4v-3.87Zm12.97-72.6h21.64v3.87h-21.64v-3.87Z"/>
        <path class="cls-13" d="m480.98,233.86s6.31,10.68,8.96,12.4c3.58,2.37,1.36,4.73-.36,4.8-1.72,0-10.46.65-12.4-1.58s-2.87-8.74-4.66-10.46-3.66-8.53.86-10.18c3.94-1.51,7.6,5.02,7.6,5.02h0Z"/>
        <path class="cls-11" d="m478.18,229.2s7.24,12.54,8.46,14.33c1.22,1.86-2.37,1.86-4.59,1-2.22-.86-7.81-9.82-8.6-11.47-.93-1.94-.14-4.16-.14-4.16l4.87.29h0Z"/>
        <path class="cls-13" d="m470.87,235.86l1.72,12.83.86.07-.29-9.25-2.29-3.66Zm-52.46-2.01s6.31,10.68,8.96,12.4c3.58,2.37,1.36,4.73-.36,4.8-1.72,0-10.46.65-12.4-1.58s-2.87-8.74-4.66-10.46-3.73-8.74.86-10.18c4.01-1.29,7.6,5.02,7.6,5.02h0Z"/>
        <path class="cls-11" d="m416.05,229.2s6.81,12.47,8.1,14.33c1.22,1.86-2.37,1.86-4.59,1-2.22-.86-7.81-9.82-8.6-11.47-.93-1.94-.14-4.16-.14-4.16l5.23.29h0Z"/>
        <path class="cls-13" d="m408.38,235.86l1.65,12.83.93.07-.29-9.25-2.29-3.66Z"/>
        <path class="cls-11" d="m390.46,136.61l57.05,26.02s6.38,2.08,7.1,9.17c2.22,22.07,18.71,57.05,18.71,57.05,5.3,2.58,4.87.36,4.87.36-3.37-10.75-7.38-54.9-8.89-72.6-.29-3.73-.5-6.31-.57-7.17,0-.57-.65-1.29-1.72-2.15-7.81-6.38-40.06-19.49-40.06-19.49-24.01-.65-36.48,8.82-36.48,8.82h0Z"/>
        <path class="cls-11" d="m379.71,147.79c1.79,15.41,23.79,13.69,23.79,13.69h26.66s-7.02,15.62-9.75,28.74c-2.87,13.98-9.68,38.63-9.68,38.63,0,0,.43.86,5.3.36,0,0,20.93-41.71,28.95-52.25,1.72-2.22,6.67-14.55,7.53-21.86.29-2.44.14-4.37-.79-5.16-.93-.79-3.08-2.22-5.88-4.01-8.39-5.3-22.86-13.4-30.96-15.19-10.82-2.44-27.95-7.02-27.95-7.02,0,0-9.03,8.67-7.24,24.08h0Z"/>
        <path class="cls-2" d="m397.84,28.96s-4.01-7.6-2.08-15.62c1.94-8.1,9.46-16.13,20.43-12.4,10.97,3.73,19.85,12.18,13.26,22.07-6.59,9.82,5.95,14.33,2.72,18.99s-2.01,9.6-.65,10.68,5.73,4.95,5.23,9.6c-.5,4.59-21.29-13.4-21.29-13.4,0,0-11.25-22.86-17.63-19.92Z"/>
        <path class="cls-14" d="m431.31,125.86s-1.65,8.03-44.29-2.08c0,0,14.26-4.73,44.29,2.08Z"/>
        <path class="cls-6" d="m386.52,126c-.65,1.29-1.29,2.51-2.01,3.8,15.55.43,31.18.93,46.73,1.36-2.44-8.24-1.65-19.42-1.22-27.88.5-10.39,6.24-17.56,5.66-28.02,3.08.5,3.58.57,6.67,1.08-4.73-13.47-6.31-20.14-21-25.3-4.8-1.72-7.88-2.01-13.04-1.58-16.99,1.43-22.07,1.58-30.46,16.99,13.04,2.08,10.89,6.74,14.84,19.78,1.94,6.31,3.94,13.4,2.94,20.07-1,6.52-9.1,13.76-9.1,19.71h0Z"/>
        <path class="cls-11" d="m413.61,54.26c-6.95-1.29-5.45-5.16-5.45-5.16,0,0,.29-2.15.43-4.95,0-.72.07-1.43.07-2.22,0-1.15-.07-2.29-.21-3.44-.57-4.66,12.61-1.86,12.61-1.86,0,0-.79,9.46,1.08,12.26,1.79,2.87-1.58,6.74-8.53,5.38h0Z"/>
        <path class="cls-11" d="m400.35,49.1s14.05,16.2,19.21,19.92c0,0,5.95-5.38,2.29-19.57,0,0-6.74-3.44-21.5-.36Zm.43-38.99s-7.31,14.05-.07,27.31c7.24,13.26,21.43-5.81,22.29-8.03.93-2.22,5.81-14.91-3.87-18.71-9.68-3.87-16.27-4.37-18.35-.57h0Z"/>
        <path class="cls-10" d="m414.83,38.85s-1.29,2.8-6.24,5.3c0-.72.07-1.43.07-2.22,0,0,3.37-.36,6.16-3.08h0Z"/>
        <path class="cls-11" d="m341.23,113.39s-3.44,1.51-5.09.86c-1.65-.72-4.16-.86-4.95-.86-1.08,0-4.44-1.22-4.37.14.07,1.29,5.45,2.22,6.52,2.65,1.08.43-3.3,2.8-3.73,3.87s4.59,8.1,7.38,6.09,4.3-6.02,4.87-6.31c.57-.29,2.08-1.36,2.08-1.36l-2.72-5.09h0Z"/>
        <path class="cls-11" d="m330.19,119.41s-8.1,6.74-8.24,7.67.29,1.36,1.08.72c.79-.57,8.03-6.31,8.03-6.31,0,0-8.1,9.6-8.39,10.32-.14.43.65,1.29,1.08,1,.43-.29,9.1-9.32,9.1-9.32,0,0-7.6,8.96-7.6,9.68-.07.57.86,1.22,1.51.57s8.17-8.53,8.17-8.53c0,0-5.09,6.88-4.73,7.53.21.36.86,1.15,2.08-.65s4.66-5.81,4.66-5.81l-6.74-6.88h0Z"/>
        <path class="cls-2" d="m427.37,161.4h-23.87s-22,1.79-23.79-13.69c-1.79-15.41,7.24-24.01,7.24-24.01,0,0,11.61,3.08,21.79,5.52,5.09-1.08,11.18-1.79,18.35-1.58,0,0,43,14.19,41.71,21.72,0,.07-17.99-9.53-41.42,12.04Z"/>
        <path class="cls-20" d="m411.82,134.74l45.58-.72-23.01,11.68-22.58-10.97Z"/>
        <path class="cls-6" d="m426.01,128.87s-10.25,3.94-22.79.36l-.57-4.66,25.87,1.43-2.51,2.87Z"/>
        <path class="cls-15" d="m434.39,145.71l-22.58-8.74v-2.22l24.37,8.74-1.79,2.22Z"/>
        <path class="cls-12" d="m425.79,131.09c-.14,1.65,1.58,2.87,3.15,2.22l2.65-1.15c.79-.36,1.29-1.15,1.15-2.01-1.08-6.88-3.44-33.68,0-38.34,1.29-1.72,2.08-3.23,2.51-4.52,2.29,5.88,5.09,13.47,6.24,17.56l21.5,28.67,7.24,1.86c-9.03-21.72-16.27-33.18-16.27-33.18-1.43-3.8-5.45-15.27-9.03-25.44-2.29-6.45-4.3-12.4-5.45-15.55-.57-1.65-1.65-3.01-3.15-3.87-3.37-2.01-8.89-5.16-13.9-7.6h-.07c-.14-.07-.29-.14-.5-.22,9.6,14.41,5.88,55.33,3.94,81.56q0-.07,0,0Zm-35.55-80.41c-3.08.5-10.68,7.88-14.69,15.34-4.59,8.53-9.32,18.2-12.83,21.36-6.45,5.88-24.58,26.59-25.44,26.09-.36-.22,4.95,6.16,5.66,6.45.36.14,29.74-25.37,32.61-29.24,2.65-3.66,9.82-19.14,11.97-18.78.14.36,2.8,6.02,5.23,14.26.07.14.07.29.14.43,1.72,5.73,1.58,12.04.65,19.06-.72,5.3-4.66,13.98-7.02,18.2-.29.5-.21,1.51.07,2.22.21.43.43.79.79.93l8.67,3.23,2.01.72c1.43.57,3.01.29,4.16-.57.93-.65,1.65-1.72,1.79-3.01,1.94-14.76,4.37-29.89,6.31-35.55,8.53-24.94-3.3-43.72-3.3-43.72,0,0-14.05,1.58-16.77,2.58h0Z"/>
        <path class="cls-12" d="m434.39,145.71l13.55-36.98,43.65.72-12.9,34.11-44.29,2.15Z"/>
        <path class="cls-19" d="m461.91,125.07c-1.36,2.65-.93,5.59.93,6.45,1.86.93,4.37-.5,5.73-3.15s.93-5.59-.93-6.45c-1.86-.93-4.44.5-5.73,3.15Z"/>
        <path class="cls-2" d="m435.4,55.19c-3.23-4.87-5.52-8.74-5.81-15.7-.21-4.59-1.22-10.82-4.37-13.9,3.3-8.6-.57-11.18-2.15-13.98-1.94-3.51-16.27-11.97-21.93-3.08-5.66,8.82-3.66,18.06-3.66,18.06.57-4.87,5.59-11.47,5.59-11.47.79,5.09,11.32,13.4,15.91,16.77-.07.07-.14.22-.14.29-2.58,3.73.65,7.45,1.22,11.4.57,3.94-10.82,14.55,1.86,19.85,12.69,5.38,16.7-3.44,13.47-8.24h0Zm-230.7,417.46s-.29,3.01-14.33,3.01-34.47-3.66-34.47-3.66l32.61-3.15s12.54-.65,16.2,3.8Z"/>
        <path class="cls-2" d="m168.94,473.73c-7.96,0-11.32,4.09-14.48,5.38s-6.31,3.23-6.31,3.15c1.79-3.51,4.3-3.58,5.59-4.73,1.29-1.15.93-.57-1.86-.79-1.58-.14-4.44,2.8-6.45,4.44-1.79,1.36-2.87,1.5-2.87,1.5,0,0,2.08-2.94,4.66-5.3,3.15-2.87,7.1-5.23,8.03-5.66,1.72-.72,7.02-.86,10.75-.36,4.3.57,8.67,2.37,2.94,2.37Z"/>
        <path class="cls-2" d="m155.75,471.87s-6.09,1.58-7.17,2.44c-.72.57-3.87,3.94-3.87,3.94,0,0,2.29-.36,3.58-1.65,1.36-1.36,7.45-4.73,7.45-4.73h0Zm37.41-5.38s15.34,1,14.26,10.46c-.57,5.38-4.09,7.24-8.74,6.81-8.6-.72-18.35-2.01-18.35-2.01l-4.37-14.69,17.2-.57h0Z"/>
        <path class="cls-2" d="m196.39,467.78l15.05-48.52s2.22-7.1,5.88-5.81c5.23,1.94,2.65,7.74,2.22,11.18-.93,7.02-.29,10.11-5.16,27.02-3.01,10.46-5.59,22.5-8.17,29.38-1.79,4.73-4.87-2.08-9.53-3.94-8.74-3.51-.29-9.32-.29-9.32h0Zm1.15-74.89c2.94,8.46,12.04,12.83,20.43,9.75,8.31-3.08,12.76-12.47,9.82-20.93-2.94-8.46-12.04-12.83-20.43-9.75-8.31,3.08-12.76,12.47-9.82,20.93Z"/>
        <path class="cls-2" d="m181.05,393.68c4.59,6.88,13.76,8.6,20.43,3.87l-.93-8.1c6.67-4.8,8.31-14.26,3.73-21.14l-3.15-4.66c-4.59-6.88-13.76-8.6-20.43-3.87l-3.01,2.15c-6.67,4.8-8.31,14.26-3.73,21.14l7.1,10.61Z"/>
        <path class="cls-11" d="m175.03,371.1c.79,1.15,1.65,2.22,2.65,3.3,6.59,7.17,15.41,9.89,21,6.95,2.58,3.51,5.52,6.31,8.17,8.46,3.08,2.51,10.97,3.51,10.97,3.51,4.59,5.02-12.61,34.33-13.83,34.19-2.51-.21-5.73-16.41-3.37-22.29,1.08-2.65,2.8-5.81,2.29-7.24-1.79-4.95-4.3-4.09-4.3-4.09,0,0-3.3,3.87-5.88,3.73-2.65-.21-7.24-4.37-7.45-4.44-.79-.65-1.51-1.43-2.15-2.37l-6.88-10.32c-1.79-2.87-2.22-6.31-1.22-9.39h0Z"/>
        <path class="cls-19" d="m227.63,494.58s-5.59,6.74-7.31,7.45c-2.29,1-9.32-1.15-9.32-1.15,0,0-1.86-30.89-4.01-42.93-2.15-12.04-5.3-15.19-5.45-18.99-.21-6.09-5.3-8.53-4.44-13.26.86-4.73,2.37-21.64,2.87-19.42,4.37,19.21,9.75,3.23,10.97.72.65-1.36,16.7,87.58,16.7,87.58h0Z"/>
        <path class="cls-2" d="m202.19,400.56s-6.81,7.45-6.31,10.39c.43,2.94-2.94,12.11.43,24.87,3.8,14.55,5.81,24.44,6.52,33.97.72,9.53-2.51,18.28-1.22,29.96,1,9.17,3.08,9.68,3.08,9.68,0,0,4.09,1,6.95-2.58,2.87-3.51-1.43-34.76-2.87-42.5-1.43-7.81-6.02-26.02-7.24-31.39-1.51-6.59-1.22-13.33-1.15-15.27.36-6.81,1.22-11.04,1.94-13.62.07-.36.43-4.37-.14-3.51h0Zm11.9,8.74c3.73,10.75,15.34,16.27,25.94,12.33,10.61-3.94,16.2-15.84,12.47-26.59-3.73-10.75-15.34-16.27-25.94-12.33-10.61,3.87-16.2,15.84-12.47,26.59Z"/>
        <path class="cls-7" d="m177.61,594.06l3.8,30.32-16.48,7.81-9.1,2.01,16.2-12.54-5.3-27.38,10.89-.21Z"/>
        <path class="cls-2" d="m182.48,628.96l-3.58.93-2.44-2.22-13.19,6.59-11.68,2.8s-.14-.93.22-1.43c1.43-1.94,9.68-6.16,9.68-6.16,0,0,.14,2.8,1.29,2.87,1.15.07,11.25-5.23,13.62-6.67,4.01-2.51,4.8-4.16,5.09-3.94.86.43,1,7.24,1,7.24h0Z"/>
        <path class="cls-13" d="m233.51,474.73l-9.75,4.37.07,13.4-67.15-10.97s-6.38-2.08-10.46,8.46c-5.81,14.91-20.57,61.28-20.57,61.28l9.32,10.11,29.31-52.39s60.06,29.17,79.84,22.86c7.6-2.44,13.4-16.34,12.33-30.39-.86-11.04-3.01-21.14-3.01-21.14l-19.92-5.59Z"/>
        <path class="cls-13" d="m224.98,531.56l-48.09-3.58,4.16,76.83-14.19.5-10.46-90.01s2.8-13.4,11.97-11.4c9.25,2.08,31.46,19.71,56.62,27.66Z"/>
        <path class="cls-18" d="m257.37,550.84s-25.23-28.31-31.75-44.29c-7.81-19.14-7.17-43.14-8.6-51.1-2.65-14.62-5.88-43-6.45-46.51-.65-3.51,1.58-7.45,1.58-7.45,0,0-1.65-10.61,3.08-9.46,6.81,1.65,13.55,5.38,15.91,6.52,4.44,2.01,13.55,55.47,14.05,58.05,1.86,9.32,8.67,17.77,13.55,26.45,11.47,20.57,14.41,44.86,14.41,44.86,0,0-1.43,17.77-15.77,22.93h0Z"/>
        <path class="cls-11" d="m231.36,476.81s-.21,3.44-16.27,2.65c-16.05-.86-39.56-6.24-39.56-6.24l37.2-1.72s14.26.07,18.63,5.3h0Z"/>
        <path class="cls-11" d="m188.14,475.09c-7.67-.14-10.97,3.8-13.98,5.02-3.01,1.22-6.09,3.01-6.09,3.01,1.72-3.37,4.16-3.44,5.45-4.52,1.22-1.08.93-.5-1.79-.79-1.58-.14-4.3,2.65-6.24,4.23-1.72,1.36-2.8,1.43-2.8,1.43,0,0,2.01-2.87,4.52-5.16,3.08-2.72,6.81-5.02,7.74-5.38,1.65-.65,6.74-.72,10.39-.14,4.09.57,8.31,2.44,2.8,2.29h0Z"/>
        <path class="cls-11" d="m175.32,473.01s-5.88,1.43-6.88,2.22c-.72.57-3.73,3.8-3.73,3.8,0,0,2.15-.36,3.44-1.58,1.29-1.15,7.17-4.44,7.17-4.44h0Z"/>
        <path class="cls-2" d="m218.53,473.01l23.79-12.54s.07,15.19.21,21c.14,5.81,2.58,13.98-2.01,15.19-4.59,1.22-6.95.57-2.22,3.37,4.73,2.72,3.66,5.59,1.86,7.96s6.02,26.45,4.16,27.81c-7.38-9.32-15.34-20.86-18.78-29.24-4.37-10.89-6.09-23.36-7.02-33.54Z"/>
        <path class="cls-18" d="m226.2,466.92l-.93-48.45s.07-15.12.36-19.57c.29-4.59,8.1.79,8.1.79,0,0,10.97,14.84,11.18,50.6.14,23.94-1.15,36.41-12.18,35.4-10.25-.93-21.93-2.51-21.93-2.51l-5.09-13.26,20.5-3.01Z"/>
        <path class="cls-15" d="m223.76,492.51l-81.92-10.25.22-1.72,81.92,10.25-.21,1.72Z"/>
        <path class="cls-15" d="m187.86,486.2c-.14,1.36-1.22,2.37-2.37,2.22l-42-5.23c-1.15-.14-2.58-1.22-3.58-4.8l-16.2-41.93c.22-1.72,1.58-2.58,2.72-2.15l42.93,6.74c1.15.43,1.94,1.43,2.37,3.3l16.13,41.85Z"/>
        <path class="cls-15" d="m182.55,487.35l.43.07,40.99,5.16c-1.58.65-4.09.86-6.88.5l-34.33-4.3-.43-.07-34.33-4.3c-2.8-.36-5.16-1.22-6.59-2.15l41.14,5.09h0Z"/>
        <path class="cls-2" d="m226.2,466.92l-.93-48.45s.72-4.09,2.15-7.74c.36,5.3,2.8,43.5,3.08,48.52.36,5.45,4.8,6.02,5.73,7.81,1,1.72.14,2.08-3.15,1.43-3.23-.72-2.08-.14-1.36,1.58.72,1.79-1.08,1.29-7.38-1-4.59-1.65-13.4,0-17.85,1l19.71-3.15h0Z"/>
        <path class="cls-8" d="m509.43,348.02c-7.88,2.08-22.43,9.39-25.51,21.93-4.59,18.85,4.59,46.44-9.89,73.53-4.66,8.6,80.05,20.21,80.05,20.21l16.34-95.17s-20.43-20.64-24.58-22.07c-8.67-2.87-20.64-2.58-36.41,1.58h0Z"/>
        <path class="cls-18" d="m570.49,368.59c2.94,7.6,10.39,52.82,2.08,63.5-.93,1.22,4.3,3.15,3.37,8.74-.14.93-1.72,5.45-1.72,5.45l-6.74,1.79-14.69-16.99s5.95-9.25,13.76-44.29c2.29-10.32,3.3-19.92,3.94-18.2h0Z"/>
        <path class="cls-10" d="m514.88,422.63s7.1,18.71,24.22,23.72c2.94.86,4.8,4.16,3.37,5.23-1.86,1.36-4.3,1.65-8.6,1.65-8.96,0-21.14-2.87-29.53-11.32-12.47-12.47-16.41-18.2-15.12-24.44,1.15-6.38,25.66,5.16,25.66,5.16Z"/>
        <path class="cls-18" d="m486.35,363.65c-3.66,6.16-5.73,16.05-5.66,30.24,0,10.97,9.17,28.95,10.54,34.47.21.93.79,4.87.79,4.87l10.11,10.32,20.28-14.26-6.16-9.82-1.86.21s-1.15-5.45-.86-7.53c.29-2.08-5.59-30.39-8.53-48.52-1.65-10.54-15.05-6.09-18.63,0h0Z"/>
        <path class="cls-2" d="m504.56,419.26l5.95-1.86,2.44-.65c.14,1.72,1.58,2.87,1.58,2.87l-4.66.57-5.38,1.72-6.31,4.52,6.38-7.17h0Z"/>
        <path class="cls-10" d="m537.81,446.28l10.32-2.94s2.94,4.09,2.37,5.09c-.57,1,0,7.02,0,7.02l-5.02,4.44-4.09-1.43s-.29-1.86,1.08-2.01c1.43-.21-.93-1.22-1.65-1.65-.72-.5-6.67-3.66-3.01-8.53Z"/>
        <path class="cls-1" d="m521.9,347.09c-1.15,3.37.57,7.17,3.87,8.31l5.88,2.15c3.3,1.22,6.88-.65,8.03-4.01l5.23-15.48c1.15-3.37-.57-7.17-3.87-8.39l-5.88-2.15c-3.3-1.22-6.88.65-8.03,4.01l-5.23,15.55Z"/>
        <path class="cls-10" d="m547.56,360.71c-.57,2.22-2.87,3.58-5.02,2.94l-17.7-5.09c-2.15-.65-3.44-2.94-2.87-5.23l7.24-27.16c.57-2.22,2.87-3.58,5.02-2.94l17.7,5.02c2.15.65,3.44,2.94,2.87,5.23l-7.24,27.23Z"/>
        <path class="cls-12" d="m556.73,330.75c.14-.14-1.65-2.15-.72-6.09,1.22-5.3-2.72-7.45-5.66-7.53-1.72-.07-7.53,2.72-10.61,3.66-3.08.93-2.8-.29-8.39-1.29-3.73-.72-4.59,1.36-5.88,4.23-1.29,2.94-1.43,14.12-1.43,14.12.5.72,1.29,1.29,1.79.72s2.51-9.53,4.16-12.18c1.58-2.65,8.03,1.58,11.54,3.66,3.44,2.08,6.52,2.44,12.04,1.29.65.72,1.22,1.51,1.22,1.86,0,.72-1.58,5.81-1.58,5.81,0,0,3.08-1.94,3.94-3.44.43-.5.57-2.94-.43-4.8h0Z"/>
        <path class="cls-10" d="m527.56,347.67c-.21.72-.93,1.22-1.65,1l-3.8-1.08c-.72-.21-1.15-1-.93-1.72l1.94-7.24c.21-.72.93-1.22,1.65-1l3.8,1.08c.72.21,1.15,1,.93,1.72l-1.94,7.24Z"/>
        <path class="cls-12" d="m525.2,340.79s-2.87,10.68-3.8,14.26c-.86,3.23-1.5,10.68,16.05,15.7,10.39,2.94,12.11-5.09,12.83-7.67.5-2.01-.07-8.53-.86-9.96,0-.07-1.15,4.44-1.15,4.44,0,0-1-4.95-5.95-6.31-7.96-2.29-11.11,2.08-14.55.93-2.72-.93-3.51-6.09-2.58-11.4h0Z"/>
        <path class="cls-10" d="m537.16,357.2l5.45,1.58c.72.21,1.5-.21,1.65-1l.21-.79-8.1-2.29-.21.79c-.14.79.29,1.5,1,1.72Z"/>
        <path class="cls-5" d="m623.52,465.77c-2.51,7.24-46.66,33.83-61.49,32.25l-44.65,2.22c-37.91-4.8-55.9-65.86-55.9-65.86,1.5-15.34,38.92,6.88,52.25,13.76,21.07,10.89,34.47,11.47,34.47,11.47,14.12,1.5,30.46-9.82,48.3-10.18,19.57-.5,31.03,4.95,27.02,16.34h0Z"/>
        <path class="cls-15" d="m526.49,458.46q0-.07,0,0v-2.01l76.76-1.43v2.01l-.21.36c-.93,1.72-2.72,2.01-4.73,2.08l-66.79,1.29c-2.01.07-3.8-.21-4.8-1.86l-.21-.43h0Z"/>
        <path class="cls-15" d="m544.98,458.39s0,.07,0,0l-.21.36c-.29.43-.65.79-1.08,1l-11.68.21c-1.94.07-3.66-.14-4.66-1.5l-.21-.29-.07-.07v-.93l17.77-.36.14,1.58h0Zm10.39-.72l38.34-.72v-1.36l-38.41.79.07,1.29Zm-9.96-1.65l9.25-39.27c.21-1,1.22-1.86,2.22-1.94l53.89-1c1,0,1.58.79,1.36,1.86l-9.25,39.27-57.48,1.08h0Z"/>
        <path class="cls-10" d="m510.65,510.35c5.3.93,9.39-5.45,9.39-5.45l13.76-11.18-2.94-7.6-26.8,12.47s1.22,10.82,6.59,11.75h0Z"/>
        <path class="cls-13" d="m519.96,504.47s0,.65-1,3.58c-1,2.94-2.29,3.94-3.58,4.37-5.16,1.58-8.82.79-21.14,3.23-12.33,2.44-16.05.57-19.64-5.3-3.58-5.88.14-10.54,6.16-10.97,8.67-.65,13.55.36,18.06-.36,4.73-.72,5.02-1.86,7.81-3.66,2.58-1.65,5.02,8.24,2.58,10.54-2.22,2.01,8.96,2.29,10.75-1.43h0Z"/>
        <path class="cls-6" d="m517.38,510.14c-5.09,1.58-8.82.79-21.14,3.23-12.33,2.44-16.05.57-19.64-5.3-1.65-2.72-1.72-5.16-.79-7.02-2.72,1.94-3.66,5.3-1.22,9.32,3.58,5.88,7.31,7.74,19.64,5.3,12.33-2.44,16.05-1.65,21.14-3.23,1-.29,2.01-1,2.87-2.65-.29.14-.57.29-.86.36Z"/>
        <path class="cls-16" d="m519.96,504.69v-.14c0,.07-.07.14-.14.21.07-.07.14-.07.14-.07Z"/>
        <path class="cls-6" d="m493.38,509.06c-.36.14-.72-.65-.86-1.72-.21-2.22-.72-4.37-1.43-6.59-.36-1.08-.36-2.01.07-2.15s1.15.65,1.43,1.72c.72,2.15,1.15,4.37,1.36,6.52.14,1.08-.21,2.08-.57,2.22h0Zm3.8-.72c-.43.07-.79-.65-.93-1.65-.21-2.08-.72-4.16-1.43-6.16-.36-1-.36-1.86.14-1.94.43-.07,1.15.72,1.5,1.72.65,2.01,1.15,4.09,1.36,6.09.07,1-.21,1.86-.65,1.94h0Zm4.01-.14c-.43.07-.86-.72-1-1.79-.36-2.15-.86-4.23-1.65-6.38-.36-1.08-.36-1.94.07-1.94.5,0,1.22.79,1.58,1.86.79,2.08,1.29,4.23,1.58,6.31.14,1-.14,1.86-.57,1.94h0Z"/>
        <path class="cls-2" d="m511.58,492.08s94.39-40.21,99.76-40.28c18.2-.14,14.05,18.92,4.8,27.95-10.89,10.61-93.74,30.03-93.74,30.03l-10.82-17.7h0Z"/>
        <path class="cls-10" d="m548.99,499.1l-25.8-25.37,11.04-11.25,28.09,30.67-13.33,5.95Z"/>
        <path class="cls-2" d="m554.29,479.18s-65.58-62.28-69.95-64.14c-14.98-6.31-24.22,10.82-23.72,16.77.72,7.67,67.3,70.02,67.3,70.02l26.37-22.65h0Z"/>
        <path class="cls-13" d="m593.14,501.03c1.5,1.43,1.79,5.81,1.79,5.81,0,0-21.86,8.6-29.53,8.74-2.01.07-5.59-.79-9.03-1.79-.57-.14-1.94-1.72-2.51-1.86-1.08-.29-1.29.72-2.15.43-2.29-.79-4.01-1.43-4.09-1.58-4.66-10.18-3.08-15.19-3.08-15.19,0,0,10.03,3.01,8.31.65-3.66-5.02,6.88-10.11,9.17-7.45,9.46,10.68,26.66,8.03,31.1,12.26h0Z"/>
        <path class="cls-6" d="m594.35,503.18c-6.74,2.8-20.86,8.46-23.65,8.67-11.54.86-19.57-3.37-24.94-5.88.5,1.43,1.08,3.08,1.86,4.8.07.14,1.72.79,4.09,1.58.93.29,1.15-.79,2.15-.43.57.14,1.86,1.72,2.51,1.86,3.44,1,7.02,1.79,9.03,1.79,7.67-.14,29.53-8.74,29.53-8.74,0,0,0-2.01-.57-3.66Zm-15.41-6.59c.21.43-.65.86-1.86,1.15-2.51.5-4.95,1.29-7.38,2.29-1.22.5-2.29.65-2.44.21-.14-.43.65-1.22,1.86-1.72,2.37-1,4.87-1.72,7.31-2.22,1.15-.36,2.29-.14,2.51.29Zm-4.95-1.79c.21.43-.65,1-1.86,1.36-2.44.72-4.8,1.72-7.17,2.94-1.15.57-2.22.79-2.37.36s.65-1.36,1.79-1.94c2.29-1.15,4.66-2.15,7.1-2.8,1.22-.5,2.37-.36,2.51.07h0Zm-4.73-1.58c.14.43-.65,1.08-1.79,1.5-2.37.93-4.66,2.08-6.88,3.44-1.08.72-2.08.93-2.22.43-.14-.43.57-1.43,1.72-2.15,2.22-1.36,4.52-2.51,6.81-3.37,1.15-.36,2.22-.29,2.37.14h0Z"/>
      </g>
    </g>
  </g>
</svg>